<svg preserveAspectRatio="none" width="100%" height="100%" overflow="visible" style="display: block;" viewBox="0 0 167 32" fill="none" xmlns="http://www.w3.org/2000/svg">
<g id="image 6 [Vectorized]" clip-path="url(#clip0_0_4)">
<path id="Vector" d="M96.6684 8.77817C99.1049 8.64773 101.741 8.78718 104.174 8.75681C110.881 8.67307 112.973 13.5277 112.618 19.4364C112.44 22.4168 112.436 24.4649 110.093 26.7497C109.25 27.4572 108.606 27.8563 107.543 28.1978C106.811 28.4253 106.055 28.5699 105.291 28.629C102.778 28.8422 99.8339 28.5759 97.2824 28.668C97.0598 28.676 96.7018 28.5765 96.5037 28.4757C96.3463 28.2618 96.2534 27.535 96.2525 27.2604C96.2297 21.4122 96.2387 15.5619 96.2476 9.71356C96.2485 9.21472 96.3072 9.1123 96.6684 8.77817ZM100.081 25.0913C102.558 25.1061 105.609 25.5366 107.435 23.8361C109.101 22.0043 108.698 19.6323 108.673 17.347C108.606 11.3253 104.026 12.5194 100.069 12.3281L100.081 25.0913Z" fill="var(--fill-0, black)" fill-opacity="0.2"/>
<path id="Vector_2" d="M51.0911 8.78651C52.7476 8.71991 54.6611 8.79577 56.3547 8.77303C57.9989 8.76369 59.5919 8.73599 61.2306 8.8726C65.7901 9.25262 68.1591 15.3758 64.2477 18.22C66.9425 20.3277 67.3006 23.1682 65.5706 26.0662C64.7018 27.3911 63.1348 28.3712 61.5628 28.5511C60.3804 28.6865 59.1245 28.658 57.9312 28.6577C55.7668 28.657 53.6 28.6905 51.4372 28.6441C51.0516 28.6358 50.8972 28.514 50.6602 28.2312C50.5135 27.6428 50.5581 24.702 50.5577 23.9803V14.9637L50.5581 11.3681C50.5567 10.4066 50.3036 9.38939 51.0911 8.78651ZM54.4721 25.0893C56.1555 25.0964 60.2447 25.3941 61.5531 24.7003C63.6358 23.3078 62.7689 20.5802 60.5688 20.3335C58.9309 20.1498 56.8272 20.2501 55.1542 20.2606C54.8846 20.2761 54.7013 20.241 54.5042 20.3792C54.3934 21.3711 54.4667 23.9759 54.4721 25.0893ZM54.4803 16.6778C56.4282 16.6913 58.7178 16.811 60.6564 16.5606C60.9869 16.5178 61.4543 16.2313 61.7369 16.0467C63.1776 14.2226 61.8741 12.3664 59.7342 12.3463C57.98 12.3298 56.2318 12.3419 54.4777 12.3539L54.4803 16.6778Z" fill="var(--fill-0, black)" fill-opacity="0.2"/>
<path id="Vector_3" d="M133.625 14.6269C133.619 14.1165 133.616 13.606 133.616 13.0956C133.628 8.5108 136.756 8.7789 140.231 8.77923L146.249 8.79247C148.037 8.72116 147.379 10.0562 147.507 11.327C147.596 12.2198 146.79 12.4072 146.088 12.3833C144.382 12.3899 142.673 12.33 140.966 12.3414C140.211 12.3464 137.844 12.0882 137.649 13.1464C137.442 14.2801 137.57 15.6507 137.557 16.8218L143.074 16.8172C144.056 16.8167 145.027 16.7963 146.004 16.8515C146.949 16.9051 146.978 17.5788 146.945 18.3646C146.917 19.0057 147.073 19.628 146.675 20.1633C146.14 20.5892 138.829 20.3912 137.562 20.416C137.559 21.2513 137.356 24.2181 137.855 24.7205C138.847 25.7183 146.453 24.5306 147.487 25.3165C147.776 25.5368 147.793 26.1081 147.797 26.4418C147.801 26.8085 147.884 28.0242 147.647 28.2568C147.396 28.5044 147.054 28.6013 146.712 28.6464C145.499 28.8064 144.096 28.6668 142.865 28.6576C141.118 28.6445 139.367 28.7029 137.622 28.6671C136.489 28.6439 135.469 28.3618 134.67 27.5278C134.217 27.0562 133.867 26.4654 133.728 25.8245C133.466 24.616 133.618 23.1326 133.618 21.887L133.625 14.6269Z" fill="var(--fill-0, black)" fill-opacity="0.2"/>
<path id="Vector_4" d="M133.625 14.6269C133.619 14.1165 133.616 13.606 133.616 13.0956C133.628 8.5108 136.756 8.7789 140.231 8.77923L146.249 8.79247C144.384 9.01095 141.813 8.8615 139.867 8.87287C139.268 8.87637 138.464 8.78873 137.894 8.94215C137.712 8.99121 137.527 9.22414 137.414 9.36709C136.863 10.0591 134.401 14.4988 133.895 14.5496C133.834 14.5558 133.774 14.553 133.713 14.5467L133.625 14.6269Z" fill="var(--fill-0, black)" fill-opacity="0.2"/>
<path id="Vector_5" d="M116.29 12.5472C116.298 11.5153 116.58 10.5951 117.323 9.85086C118.705 8.46828 120.9 8.78081 122.703 8.78146L128.636 8.79291C129.278 8.76871 130.236 8.77163 130.145 9.73675C130.012 11.1576 130.696 12.3808 128.725 12.3819L123.781 12.3439C119.325 12.3226 120.21 12.6176 120.189 16.8243C121.347 16.8222 128.504 16.6814 129.109 17.0101C129.411 17.3112 129.421 17.6345 129.422 18.0369C129.422 18.6587 129.595 19.7553 129.114 20.2146C128.731 20.58 121.221 20.3971 120.097 20.412C120.105 21.2095 119.885 24.2611 120.385 24.7511C121.334 25.6818 128.849 24.5389 129.983 25.3161C130.241 25.4936 130.276 25.9153 130.289 26.2007C130.311 26.6926 130.429 27.927 130.09 28.2907C129.807 28.596 129.317 28.6756 128.918 28.6862C127.601 28.7216 126.274 28.6415 124.956 28.6462C123.306 28.6522 120.703 28.8633 119.173 28.5553C118.506 28.421 117.919 28.1426 117.424 27.6731C116.554 26.8471 116.307 25.8648 116.284 24.7016C116.23 22.0832 116.279 19.4534 116.28 16.8339C116.28 15.4419 116.159 13.9265 116.29 12.5472Z" fill="var(--fill-0, black)" fill-opacity="0.2"/>
<path id="Vector_6" d="M116.29 12.5472C116.298 11.5153 116.58 10.5951 117.323 9.85086C118.705 8.46828 120.9 8.78081 122.703 8.78146L128.636 8.79291C126.114 9.04266 122.938 8.59336 120.403 9.11519C119.513 9.2985 117.669 10.7066 116.724 11.1339C116.464 11.2516 116.607 12.2029 116.29 12.5472Z" fill="var(--fill-0, black)" fill-opacity="0.2"/>
<path id="Vector_7" d="M77.7424 8.79254C77.8193 8.78808 77.8963 8.78458 77.9733 8.78231C80.8196 8.70832 83.6859 8.77849 86.5342 8.77281C88.36 8.76915 90.304 8.62824 92.1183 8.79595C92.345 8.81699 92.5652 8.85549 92.734 9.02085C93.1001 9.37861 92.9884 10.4784 92.9892 10.9741C92.9892 11.2536 93.0145 11.8657 92.8057 12.0695C92.1623 12.6962 88.0721 12.4275 87.0194 12.4267L87.0251 23.2691C87.0365 24.8349 87.0912 26.4292 86.9615 27.9848C86.8678 29.1032 83.8914 28.7654 83.3745 28.3614C83.0785 27.8455 83.1983 14.0705 83.2179 12.3486C82.2818 12.3521 78.1418 12.4954 77.5636 12.1524C77.3191 11.8749 77.2624 11.5475 77.2958 11.1924C77.3821 10.2726 76.9661 9.47526 77.7424 8.79254Z" fill="var(--fill-0, black)" fill-opacity="0.2"/>
<path id="Vector_8" d="M70.6424 8.78765C71.5232 8.77157 73.3288 8.54399 73.9336 9.18253C74.2629 10.3436 73.9279 25.8427 74.0096 28.0451C74.0182 28.2785 73.7141 28.53 73.5119 28.6676C72.625 28.6697 70.8232 28.8828 70.2255 28.2693C69.8861 27.0596 70.255 11.7928 70.1514 9.38257C70.141 9.14217 70.4499 8.9284 70.6424 8.78765Z" fill="var(--fill-0, black)" fill-opacity="0.2"/>
<path id="Vector_9" d="M20.2094 10.0195C18.6069 6.61164 19.7371 3.06346 23.2153 1.45261C24.9261 0.650644 26.8856 0.554129 28.6674 1.18407C31.0474 2.05158 33.1726 4.45273 34.2193 6.70677C34.7953 7.94718 35.1519 9.27738 35.2733 10.6387C38.3843 11.9032 40.5757 13.6792 41.9182 16.854C43.024 19.5072 43.0375 22.4873 41.9559 25.1504C40.8591 27.8673 38.7135 30.032 36 31.1592C35.0029 31.5726 33.9591 31.8057 32.9007 32H30.6162C29.3722 31.7648 28.361 31.5396 27.1925 31.0278L27.3204 30.7877L27.5031 30.4413C29.5462 26.539 28.9233 24.0037 28.0239 19.937C27.798 18.9157 27.5842 18.2819 27.6774 17.2372C27.8082 15.7702 30.4156 14.8576 30.1718 13.703C29.2709 12.5797 24.1393 14.4179 22.4787 12.0983C20.5813 9.44818 22.1 6.47892 25.2311 6.27516L25.8507 4.78774C22.5181 4.79009 20.3612 6.63913 20.2094 10.0195Z" fill="var(--fill-0, black)" fill-opacity="0.2"/>
<path id="Vector_10" d="M22.4529 0H22.854C22.0168 0.444932 21.4208 0.772875 20.6819 1.39604C17.1309 4.39052 17.1374 9.60308 20.4757 12.75C20.6816 12.9441 20.8929 13.1346 21.1032 13.3248C20.5616 13.3079 19.6519 13.1332 19.5664 13.8121C19.9678 15.0118 21.981 15.7347 22.9521 16.2463C22.9679 16.9869 22.8017 17.732 22.7917 18.4286C22.7476 21.5366 21.5895 24.3427 17.9626 24.3526C14.3624 24.3625 11.1166 23.5307 8.23005 26.5084C7.01841 27.7697 6.29102 29.4155 6.17539 31.1574C3.20515 29.5143 1.45942 27.5199 0.43577 24.2076C0.181339 23.3843 0.167532 22.7262 0 22.0681V20.2393C0.273353 18.6788 0.40408 17.6286 1.1328 16.1615C3.28609 11.8264 7.32881 9.79078 12.0494 9.88564C12.7337 6.14546 14.6813 3.16447 18.0857 1.31823C19.5562 0.520689 20.8484 0.296486 22.4529 0Z" fill="var(--fill-0, black)" fill-opacity="0.2"/>
<path id="Vector_11" d="M155.228 21.2866C155.235 23.3198 155.258 25.3642 155.245 27.3978C155.243 27.6618 155.21 28.2376 155.004 28.4233C154.542 28.8392 153.034 28.6471 152.401 28.6868C152.113 28.7048 151.678 28.5775 151.473 28.3447C151.375 27.9224 151.345 27.4911 151.332 27.0588C151.28 25.3326 151.207 9.808 151.384 9.33742C151.444 9.17653 151.67 8.96366 151.826 8.89584C152.202 8.73235 159.77 8.7382 160.772 8.83233C161.506 8.89576 162.228 9.06534 162.914 9.33588C166.397 10.7052 167.538 14.1072 166.291 17.5752C165.73 19.1352 164.484 20.1065 162.982 20.7479C164.309 22.9473 165.729 25.6139 167 27.8787V28.2816C166.3 28.9165 164.48 28.6696 163.502 28.635C162.682 28.1231 161.975 26.5895 161.477 25.7061L159 21.279L155.228 21.2866ZM162.087 16.9816C162.964 16.0204 163.297 13.9988 162.203 13.154C160.652 11.9566 157.15 12.3406 155.203 12.3514C155.208 14.1191 155.186 15.953 155.219 17.7141C156.995 17.7214 160.741 18.0221 162.087 16.9816Z" fill="var(--fill-0, black)" fill-opacity="0.2"/>
</g>
<defs>
<clipPath id="clip0_0_4">
<rect width="167" height="32" fill="white"/>
</clipPath>
</defs>
</svg>
