<svg preserveAspectRatio="none" width="100%" height="100%" overflow="visible" style="display: block;" viewBox="0 0 215 32" fill="none" xmlns="http://www.w3.org/2000/svg">
<g id="image 5 [Vectorized]" clip-path="url(#clip0_0_23)">
<path id="Vector" d="M133.499 6.54542C135.38 6.08914 139.226 6.87858 140.572 8.29838C142.559 10.3955 142.145 13.6269 142.145 16.2882V24.3416L138.762 24.3439C138.447 23.4867 138.164 22.7445 137.796 21.9095C135.662 24.8195 131.485 25.5121 128.478 23.6308C128.31 23.4921 128.148 23.3476 127.99 23.1975C126.891 22.136 126.586 20.6942 126.538 19.2207C126.346 13.3478 133.11 13.4746 137.345 13.426C137.357 12.8188 137.385 12.0717 137.15 11.5058C136.012 8.7692 131.662 10.5261 129.75 11.3108L128.133 8.04666C130.076 7.1021 131.387 6.79258 133.499 6.54542ZM133.684 21.1323C137.037 20.9171 137.396 19.1223 137.338 16.212C136.655 16.2328 135.973 16.264 135.291 16.3058C134.111 16.4171 132.749 16.5712 131.988 17.5853C130.688 19.3139 131.574 21.0492 133.684 21.1323Z" fill="var(--fill-0, black)" fill-opacity="0.2"/>
<path id="Vector_2" d="M55.4016 6.54612C57.2281 6.0926 61.1579 6.87747 62.4752 8.29539C64.4705 10.443 64.0462 13.4804 64.0456 16.2519L64.044 24.3427L60.6688 24.3438C60.3685 23.5068 60.0483 22.7293 59.7076 21.9075C57.4648 24.7619 53.3513 25.6195 50.3113 23.5764C50.1796 23.4627 50.0512 23.3453 49.9261 23.2246C48.7638 22.0968 48.5118 20.7468 48.456 19.1906C48.2466 13.3361 55.0639 13.4713 59.2729 13.4265C59.2647 12.8189 59.2809 12.0651 59.0487 11.5064C57.9109 8.76994 53.5665 10.5195 51.6473 11.3148C51.1166 10.2238 50.5777 9.13675 50.0305 8.05381C51.9596 7.10837 53.3019 6.7928 55.4016 6.54612ZM55.6595 21.1317C58.9624 20.8924 59.289 19.0677 59.2659 16.2101C58.5783 16.2339 57.8911 16.2657 57.2042 16.3052C56.0374 16.419 54.6372 16.5779 53.8907 17.5819C52.5494 19.3853 53.519 21.064 55.6595 21.1317Z" fill="var(--fill-0, black)" fill-opacity="0.2"/>
<path id="Vector_3" d="M37.1601 6.54706C37.364 6.52207 37.5692 6.51011 37.7746 6.51125C39.9306 6.5189 42.1097 6.95079 43.6582 8.56391C45.9857 10.9885 45.7627 13.7697 45.737 16.7953L34.4952 16.7918C34.6134 17.6341 34.6697 18.2358 35.0748 19.0032C35.5358 19.891 36.337 20.5542 37.2956 20.8414C39.3994 21.4894 42.7583 20.7034 44.68 19.6898C44.9094 19.9923 44.8125 22.8206 44.8095 23.4019C43.4994 24.0484 42.3349 24.3274 40.9163 24.518C35.4504 25.2781 30.1959 23.1736 29.7015 17.0036C29.2648 11.5556 31.1879 7.20192 37.1601 6.54706ZM34.6257 13.58L38.0554 13.5792L41.2829 13.5718C41.102 11.3804 40.2337 10.0075 37.8886 9.90653C35.5638 10.1672 34.9273 11.4155 34.6257 13.58Z" fill="var(--fill-0, black)" fill-opacity="0.2"/>
<path id="Vector_4" d="M95.6914 1.21308C98.3068 0.944555 101.304 1.61876 103.644 2.79124C103.119 4.04488 102.604 5.30288 102.1 6.56508C99.5323 5.5122 93.8893 3.39275 93.9019 8.08259C95.5669 11.3091 103.628 11.6989 103.766 17.256C103.897 22.5355 100.692 24.2194 96.0831 24.6203C93.4526 24.6898 91.2738 24.3838 88.8821 23.275C88.8136 21.9574 88.8646 20.1123 88.8611 18.7552C91.3758 19.771 93.5967 20.7402 96.3697 20.564C97.6246 20.4844 99.3209 19.4713 99.0292 18.1266C98.4034 15.2414 93.4285 14.5771 91.4613 12.6039C90.126 11.2645 89.2552 10.211 89.1209 8.24487C88.8266 3.93958 91.6647 1.52756 95.6914 1.21308Z" fill="var(--fill-0, black)" fill-opacity="0.2"/>
<path id="Vector_5" d="M78.1443 6.54217C78.3829 6.52183 78.6221 6.51076 78.8616 6.50899C85.4065 6.49393 85.0365 11.6738 85.034 16.4404L85.0278 24.3429L80.2036 24.3452C80.1588 20.5826 80.3691 16.4466 80.0948 12.6981C79.9015 10.0576 76.6323 9.62693 74.7465 11.4546C73.4553 13.3161 73.6745 16.2338 73.6768 18.418L73.6902 24.3417L68.864 24.3447L68.8626 6.8201L72.5548 6.82101C72.7941 7.63674 73.0391 8.45079 73.2898 9.26309C73.3753 9.12474 73.4683 8.99121 73.5684 8.86309C74.857 7.18623 76.1461 6.80523 78.1443 6.54217Z" fill="var(--fill-0, black)" fill-opacity="0.2"/>
<path id="Vector_6" d="M156.27 6.53503C156.986 6.46917 157.61 6.55832 158.321 6.63391C158.337 7.97308 158.128 9.73994 157.98 11.0972C157.463 11.0454 156.945 11.0199 156.426 11.0208C151.486 11.0259 151.77 14.8328 151.776 18.4238L151.785 24.3421C151.182 24.3447 147.258 24.4242 146.984 24.2434L146.962 23.8426L146.959 6.82034L150.638 6.82283C150.892 7.87932 151.132 8.93922 151.358 10.0022C152.701 7.90559 153.75 6.91755 156.27 6.53503Z" fill="var(--fill-0, black)" fill-opacity="0.2"/>
<path id="Vector_7" d="M200.438 0H200.511C202.076 2.97277 203.967 6.50439 205.645 9.40956C208.725 11.0957 211.899 12.8911 215 14.5152V14.5955C212.54 15.8101 208.289 18.2861 205.983 19.5667C205.315 19.9382 201.171 27.8668 200.467 29.1601C199.779 27.7355 195.932 20.4091 195.105 19.6673C194.323 18.9665 193.044 18.4485 192.114 17.9426C190.038 16.827 187.971 15.694 185.914 14.5434L195.34 9.38749C196.823 6.37489 198.859 3.06269 200.438 0ZM193.418 14.5657C197.736 15.7403 199.204 17.6711 200.477 21.7512C201.433 17.9055 203.614 15.4906 207.543 14.5633C204.739 13.6836 202.982 12.7863 201.405 10.0097C201.046 9.37601 200.598 7.65971 200.449 7.41486C199.472 11.5842 197.326 13.3329 193.418 14.5657Z" fill="var(--fill-0, black)" fill-opacity="0.2"/>
<path id="Vector_8" d="M112.125 9.24746C113.193 7.77507 114.185 6.89477 116.038 6.60172C120.448 5.90415 123.086 9.01176 123.642 13.0879C124.063 16.1749 123.843 19.5434 122.022 22.1816C120.116 24.9148 115.998 25.4298 113.364 23.4905C112.799 23.0743 112.411 22.6229 111.947 22.0947C112.439 25.4226 112.286 28.6344 112.286 32H107.488L107.475 6.82019L111.38 6.82033L112.125 9.24746ZM115.796 20.7921C116.786 20.6136 117.449 20.4029 118.017 19.5125C119.062 17.8758 119.07 15.2966 118.757 13.4283C118.446 11.5784 117.566 10.5267 115.715 10.3251C111.883 10.6633 112.238 13.8416 112.329 16.9156C112.394 19.1028 113.488 20.6652 115.796 20.7921Z" fill="var(--fill-0, black)" fill-opacity="0.2"/>
<path id="Vector_9" d="M161.464 0H166.279C166.295 5.06311 166.351 9.75431 166.06 14.8099C168.394 11.7603 170.419 9.62336 173.039 6.82287L178.477 6.82894C176.126 9.32913 173.852 11.9301 171.493 14.4374C173.885 17.4514 176.587 21.2282 178.874 24.3459L173.336 24.3406C171.949 22.6066 169.61 19.167 168.325 17.2627C167.632 17.8063 166.951 18.365 166.283 18.9381L166.284 24.342L161.457 24.3423L161.464 0Z" fill="var(--fill-0, black)" fill-opacity="0.2"/>
<path id="Vector_10" d="M0 11.5675C0.203258 10.2406 0.318521 9.18937 0.770323 7.91161C3.42798 0.395337 11.1565 -0.0174167 17.4155 2.75441C16.9108 4.03333 16.353 5.50297 15.7994 6.75406C7.03377 2.11633 3.61494 8.89879 5.47402 16.6978C6.60326 21.435 11.6716 20.9202 15.3635 19.7516C15.7678 19.6211 16.1698 19.4842 16.5696 19.341L16.5761 23.4668C8.78784 26.2621 0.915125 24.3844 0.0886363 15.0609C0.0745821 14.9023 0.0402181 14.604 0 14.4521V11.5675Z" fill="var(--fill-0, black)" fill-opacity="0.2"/>
<path id="Vector_11" d="M20.9949 0H25.728C25.8395 8.02246 25.7333 16.2985 25.7332 24.3419L20.9926 24.345C20.9104 16.2943 20.9838 8.05771 20.9949 0Z" fill="var(--fill-0, black)" fill-opacity="0.2"/>
</g>
<defs>
<clipPath id="clip0_0_23">
<rect width="215" height="32" fill="white"/>
</clipPath>
</defs>
</svg>
