<svg preserveAspectRatio="none" width="100%" height="100%" overflow="visible" style="display: block;" viewBox="0 0 172 32" fill="none" xmlns="http://www.w3.org/2000/svg">
<g id="image 4 [Vectorized]">
<path id="Vector" d="M19.9556 1.29999C21.683 1.21435 24.0494 1.28729 25.8168 1.28715L37.2768 1.28566L47.6237 1.28585C49.3804 1.28605 51.1394 1.27434 52.8954 1.30196C53.0897 1.30502 53.5676 1.45465 53.5242 1.69958C53.4435 2.15525 53.2012 2.71304 52.9847 3.12047C49.712 9.27994 46.4524 15.447 43.1977 21.6162C43.0021 21.9871 42.7475 22.4707 42.4666 22.7693C42.1413 22.8761 42.2446 22.8861 41.9392 22.8071C41.5 22.4323 40.7123 19.1366 40.5073 18.4403L37.7649 8.97691C37.4971 8.0388 37.1705 6.58948 36.8183 5.73245L36.1292 5.28247C35.7039 5.26582 35.0603 5.19509 34.7142 5.43188C34.4991 5.92643 35.6425 9.35416 35.8686 10.1718L39.1072 21.4825C39.534 22.9585 40.0747 24.6529 40.3632 26.1624C40.4495 26.6138 40.0155 27.3678 39.7046 27.7136C38.1168 29.4794 36.4567 30.1523 34.2023 30.373C32.1377 30.4358 29.8542 30.3854 27.7713 30.3856L15.5249 30.3872L6.16791 30.3921C4.89787 30.3923 3.6257 30.3972 2.35579 30.3913C1.85453 30.3891 0.735356 30.4746 0.413588 30.1128C0.379843 29.2512 2.23871 26.0963 2.74691 25.1368L6.93546 17.2226L9.92452 11.5329C10.2384 10.9423 11.7031 7.42908 12.3298 9.61126C13.867 14.9656 15.3553 20.3444 16.9543 25.6796C17.023 25.9087 17.2986 26.2153 17.463 26.3945C17.8855 26.4128 18.9218 26.5366 19.2038 26.2312C19.3115 25.718 18.0509 21.6886 17.8188 20.8713L15.0283 11.1497C14.4881 9.3203 13.8432 7.40956 13.5175 5.53931C13.3366 4.49992 14.7966 3.28472 15.5385 2.7779C16.9318 1.82603 18.3136 1.45012 19.9556 1.29999Z" fill="var(--fill-0, black)" fill-opacity="0.2"/>
<path id="Vector_2" d="M93.7341 1.2925C106.096 1.14644 118.504 1.3876 130.869 1.2862C131.245 1.28313 132.927 1.2504 133.132 1.46193C133.237 2.30556 130.767 6.89921 130.209 7.82307C129.369 9.21283 125.481 17.6568 124.712 18.0884C124.05 17.9257 123.513 15.6228 123.283 14.9074L121.286 8.5795C121.1 7.96952 120.645 5.81398 120.018 5.74967C119.457 6.19433 110.237 24.4904 108.996 26.8942C108.72 27.4288 107.462 30.1544 107.08 30.2739C106.249 30.5331 90.3789 30.4407 90.0951 30.2658C90.0027 30.2089 90.0178 30.0513 90.0312 29.9528C90.19 28.8513 91.9998 25.7866 92.6054 24.6126L98.8731 12.4344C99.2536 11.6957 102.194 6.2914 102.088 5.81334C101.965 5.73505 101.823 5.67728 101.687 5.77073C100.714 6.43899 99.5677 7.37664 98.643 8.10137L90.8022 14.224C89.9069 14.9277 86.2629 18.0074 85.3583 18.1044L85.2047 17.9742C85.0333 17.1864 86.1806 15.5091 86.5711 14.7398C87.8821 12.1127 89.2216 9.4999 90.5889 6.90212C91.123 5.87094 92.9631 1.82473 93.7341 1.2925Z" fill="var(--fill-0, black)" fill-opacity="0.2"/>
<path id="Vector_3" d="M69.8105 1.29588C70.9034 1.28191 75.9536 1.1111 76.5659 1.53302C77.1509 2.28914 78.2537 6.72497 78.5815 7.86146L82.3361 20.9454L84.0406 26.8317C84.2044 27.3971 85.051 29.8957 84.7738 30.2146C83.8801 30.4784 81.3411 30.3919 80.2605 30.3917L74.1162 30.3862C72.7727 30.3874 65.1274 30.5501 64.2841 30.2048C63.8096 29.6329 61.534 21.1896 61.1949 20.0264L59.7995 15.1917C59.5494 14.3257 59.0843 12.8765 58.9894 12.0264C59.1816 11.7751 59.4472 11.4907 59.6721 11.2667C62.8514 8.09926 65.9801 4.87812 69.1805 1.73319C69.3701 1.54692 69.5675 1.4035 69.8105 1.29588Z" fill="var(--fill-0, black)" fill-opacity="0.2"/>
<path id="Vector_4" d="M146.337 1.3038C147.323 1.24744 153.068 1.20175 153.603 1.46825C153.799 1.82501 153.796 2.16682 153.605 2.53354C152.838 4.01439 152.102 5.51027 151.345 6.99741L146.897 15.7696L142.433 24.6075C141.929 25.6084 140.067 29.5115 139.441 30.1788C138.703 30.5373 134.242 30.3906 133.083 30.3859C129.205 30.2542 125.782 28.7281 125.535 24.3515C125.485 23.3799 125.62 22.4076 125.931 21.4866C126.594 19.466 127.978 17.3463 128.889 15.4208C132.752 7.25837 136.832 1.85635 146.337 1.3038Z" fill="var(--fill-0, black)" fill-opacity="0.2"/>
<path id="Vector_5" d="M157.756 1.29539C160.388 1.2054 165.374 1.02601 167.674 2.07019C169.14 2.72491 170.278 3.94741 170.833 5.4597C171.469 7.16327 171.341 9.35281 170.5 10.9715C166.54 18.5961 164.165 26.3278 155.474 29.5891C155.38 29.6332 155.271 29.6629 155.171 29.6942C154.213 29.9925 153.182 30.1582 152.185 30.2584C150.89 30.3887 144 30.6374 143.197 30.2018C143.083 30.14 143.058 30.0816 143.023 29.9596C142.947 29.6988 143.057 29.4183 143.161 29.1806C143.914 27.462 144.87 25.8163 145.721 24.145L149.924 15.8167L154.377 7.03719C155.232 5.33338 156.042 3.59686 156.967 1.93055C157.182 1.54258 157.334 1.42098 157.756 1.29539Z" fill="var(--fill-0, black)" fill-opacity="0.2"/>
<path id="Vector_6" d="M56.5015 14.5269C56.8825 14.513 57.1443 14.5074 57.4672 14.7114C58.0024 15.3774 59.4224 21.4665 59.8409 22.6434C60.4436 24.338 61.0817 27.0884 61.6309 28.8977C61.7641 29.3367 61.8794 29.8171 61.5884 30.2138C61.1181 30.5192 48.1678 30.3872 46.5693 30.3861C45.6286 30.3917 41.75 30.5646 41.2808 30.1156C41.2083 29.5884 43.9303 27.0791 44.4266 26.5761L50.823 20.1495C52.0051 18.9725 53.1808 17.789 54.35 16.5991C54.9756 15.9713 55.8348 15.0701 56.5015 14.5269Z" fill="var(--fill-0, black)" fill-opacity="0.2"/>
</g>
</svg>
