<svg preserveAspectRatio="none" width="100%" height="100%" overflow="visible" style="display: block;" viewBox="0 0 122 32" fill="none" xmlns="http://www.w3.org/2000/svg">
<g id="image 7 [Vectorized]" clip-path="url(#clip0_0_37)">
<path id="Vector" d="M104.806 0.0290831C108.992 -0.0925792 113.194 1.04256 116.436 3.77123C119.624 6.42535 121.603 10.2561 121.921 14.3915C122.675 23.2203 116.918 30.4913 108.147 31.6893C107.542 31.772 106.927 31.8142 106.318 31.863C97.2771 32.328 89.4171 26.1324 88.9739 16.8748C88.5118 7.23046 95.3447 0.486151 104.806 0.0290831Z" fill="var(--fill-0, black)" fill-opacity="0.2"/>
<path id="Vector_2" d="M102.816 4.38817C103.858 4.46036 105.174 4.41415 106.242 4.40093C106.17 5.25944 105.816 6.58941 105.605 7.44884L104.56 11.7018C103.3 16.7567 102.068 21.8185 100.862 26.8869C100.012 26.8148 98.3009 26.8742 97.374 26.8808C97.8564 24.5304 98.4966 22.1208 99.0688 19.7876L101.375 10.3297C101.854 8.40074 102.413 6.32227 102.816 4.38817Z" fill="var(--fill-0, white)"/>
<path id="Vector_3" d="M109.498 4.40821C110.617 4.44512 111.871 4.42012 112.996 4.4145C111.733 9.75789 110.431 15.0922 109.091 20.4172C108.62 22.3632 107.899 24.9819 107.549 26.884L104.019 26.8687C104.2 25.9487 104.462 25.0326 104.685 24.1196L106.004 18.7284L109.498 4.40821Z" fill="var(--fill-0, white)"/>
<path id="Vector_4" d="M59.3403 0.342566L66.9316 0.351204C70.8351 0.350026 74.3144 0.0864794 78.1321 1.58321C83.8561 3.82732 85.6674 10.2716 83.5137 15.7197C82.4683 18.3636 80.1857 20.0209 77.5561 21.0636C79.9925 24.5218 82.4317 28.0549 84.9114 31.4767L82.0199 31.4866L80.0272 31.4759C79.6639 30.8376 78.483 29.2608 78.011 28.5827L73.3645 21.9502C70.4259 22.132 66.7529 22.0263 63.7573 22.0187C63.6893 25.1352 63.7632 28.3611 63.7331 31.4977C62.2668 31.4839 60.7999 31.4794 59.3332 31.4843L59.3275 11.5592C59.3271 7.84171 59.2921 4.05448 59.3403 0.342566Z" fill="var(--fill-0, black)" fill-opacity="0.2"/>
<path id="Vector_5" d="M63.7541 4.24814C66.4714 4.245 69.2529 4.22046 71.9551 4.25383C74.1625 4.34297 76.7712 4.90442 78.3076 6.61057C80.6511 9.21391 80.4986 13.869 77.9069 16.2529C75.513 18.4529 71.4799 18.3136 68.4313 18.3113L63.7456 18.303L63.7541 4.24814Z" fill="var(--fill-0, white)"/>
<path id="Vector_6" d="M31.1331 0.362774C33.5913 0.310745 36.1836 0.351713 38.6499 0.351713L52.9882 0.347395L52.9939 4.24962L35.5345 4.25211C35.4517 7.28535 35.5212 10.7303 35.5211 13.7924L51.0969 13.8071L51.0871 17.6201L36.5893 17.6236L35.5207 17.6262C35.5087 20.9575 35.514 24.289 35.5365 27.6202L53.5973 27.6258L53.5862 31.493C46.1571 31.4121 38.5724 31.4763 31.1324 31.4925C31.0449 27.5594 31.1248 23.3023 31.1244 19.342L31.1331 0.362774Z" fill="var(--fill-0, black)" fill-opacity="0.2"/>
<path id="Vector_7" d="M0.42408 0.351782C3.45837 0.307279 6.60047 0.349754 9.64622 0.350146L25.4779 0.357344C25.4449 3.82632 25.8761 2.96343 23.6432 5.72547L20.5744 9.54046L6.08398 27.6124C12.6615 27.7098 19.4935 27.621 26.0864 27.6181C26.0705 28.7785 26.1465 30.3956 26.0713 31.4847L0.114635 31.4953C0.0932224 28.2094 -0.272015 28.8999 1.82952 26.3066L4.37817 23.1602L14.2294 10.9361L17.498 6.89452C18.166 6.06683 18.9618 5.12351 19.5553 4.2635C13.2458 4.16919 6.73402 4.24498 0.413377 4.24786C0.404867 2.94917 0.408435 1.65041 0.42408 0.351782Z" fill="var(--fill-0, black)" fill-opacity="0.2"/>
</g>
<defs>
<clipPath id="clip0_0_37">
<rect width="122" height="32" fill="white"/>
</clipPath>
</defs>
</svg>
