<svg preserveAspectRatio="none" width="100%" height="100%" overflow="visible" style="display: block;" viewBox="0 0 126.431 24" fill="none" xmlns="http://www.w3.org/2000/svg">
<g id="logo" clip-path="url(#clip0_0_6)">
<path id="Vector" d="M29.2203 6.33259C29.457 6.40771 30.1843 6.4461 30.4914 6.48887C32.5089 6.77 33.1412 7.31257 34.5175 8.70034C34.5107 8.0647 34.518 7.42905 34.5395 6.79374C35.3281 6.68884 38.0858 6.72392 38.8763 6.79614C38.9928 8.07794 38.9103 10.9697 38.9101 12.3369L38.9056 23.3826C37.4446 23.3979 35.9834 23.398 34.5224 23.3831L34.5231 21.5685C34.0781 22.0061 33.837 22.2544 33.325 22.6029C28.3307 25.7158 22.5093 22.6889 21.3355 17.1081C20.3966 12.6438 22.6514 7.81393 27.2204 6.59469C27.8572 6.42475 28.5527 6.46496 29.2203 6.33259ZM30.8695 19.6538C33.3959 19.1542 35.032 16.6922 34.5144 14.1691C33.9968 11.646 31.5236 10.0272 29.0046 10.563C26.511 11.0933 24.9124 13.5366 25.4248 16.0343C25.9372 18.5321 28.3686 20.1483 30.8695 19.6538Z" fill="var(--fill-0, #1B1B1B)"/>
<path id="Vector_2" d="M111.657 2.25217L111.786 2.2583C111.917 2.53793 111.856 6.15347 111.854 6.72218C113.95 6.79375 116.307 6.74403 118.421 6.74444C118.418 5.64971 118.424 4.55498 118.439 3.46033C119.546 3.162 121.62 2.56375 122.647 2.16018C122.703 3.6402 122.676 5.23298 122.675 6.72161C123.927 6.74469 125.178 6.75627 126.43 6.75627L126.431 10.9896L122.677 11.0058C122.629 12.6284 122.577 17.4723 122.866 18.8249C123.146 19.0899 123.355 19.2208 123.671 19.431C124.518 19.47 125.567 19.4481 126.429 19.4525L126.43 23.3624C123.343 23.684 119.474 23.8263 118.624 19.9161C118.379 18.7879 118.416 17.9818 118.428 16.8356L118.433 11.0022L111.854 11.0048C111.848 12.777 111.719 17.3357 112.045 18.8255C112.347 19.1035 112.51 19.2096 112.849 19.4303C113.662 19.4745 114.766 19.4483 115.601 19.4523L115.602 23.3613C112.438 23.7574 108.505 23.7153 107.762 19.7588C107.516 18.4465 107.594 17.1759 107.597 15.8474L107.621 11.0018L104.782 10.9895C104.778 9.57748 104.78 8.16547 104.789 6.75354C105.696 6.72946 106.684 6.74684 107.597 6.74518L107.616 3.45082C108.903 3.12112 110.369 2.64152 111.657 2.25217Z" fill="var(--fill-0, #1B1B1B)"/>
<path id="Vector_3" d="M0.171132 0.163153C1.66556 0.146276 3.19862 0.162738 4.69603 0.163317C4.75683 3.19724 4.71365 6.36031 4.71514 9.40391C7.54567 9.45454 10.4901 9.41508 13.3297 9.41673L13.3432 0.163401C14.8396 0.141559 16.3851 0.162657 17.8853 0.163898L17.8941 16.0284L17.894 20.8501C17.8939 21.4177 17.9293 22.7668 17.8588 23.281C17.6789 23.4433 17.6064 23.3875 17.3045 23.3951L13.3435 23.3848L13.3449 13.8224L4.71638 13.8268C4.62266 16.8486 4.71646 20.3136 4.7019 23.3823C3.18646 23.3979 1.67086 23.3983 0.155415 23.3835C0.176591 15.7008 0.0538342 7.82585 0.171132 0.163153Z" fill="var(--fill-0, #1B1B1B)"/>
<path id="Vector_4" d="M80.662 6.32911C81.1368 6.37255 81.6621 6.39191 82.127 6.45884C84.1933 6.77124 86.0545 7.88384 87.3078 9.55638C88.963 11.7975 89.3286 14.2679 88.9233 16.957L76.5218 16.9678C77.598 20.082 81.0938 20.6968 83.793 19.1781C84.1305 18.9881 84.5184 18.6004 84.8112 18.3332C85.4159 18.5992 86.3366 19.1683 86.933 19.5143C87.3574 19.7636 87.8082 20.0557 88.2301 20.317C85.3837 24.3858 79.4601 24.9542 75.4845 22.2145C69.5278 18.1087 71.461 7.47911 78.9761 6.52312C79.537 6.45172 80.1078 6.43104 80.662 6.32911ZM76.425 13.4894L80.8936 13.4869C82.1907 13.4895 83.5249 13.4752 84.8187 13.4971C84.1247 11.2724 82.8317 10.2307 80.4692 10.2063C78.2581 10.4542 77.0661 11.3542 76.425 13.4894Z" fill="var(--fill-0, #1B1B1B)"/>
<path id="Vector_5" d="M97.2888 6.32911C100.15 6.48655 102.097 7.40978 103.582 9.92413C102.387 10.5405 101.2 11.1731 100.022 11.8218C99.8714 11.6206 99.7167 11.4218 99.5595 11.2255C99.093 10.6457 98.4097 10.2821 97.6677 10.2192C97.015 10.1583 96.3102 10.2159 95.8181 10.6625C95.6253 10.8371 95.2092 11.2448 95.2655 11.4894C95.6179 13.0194 99.5157 13.4068 100.789 14.0975C101.495 14.4022 102.221 14.8618 102.743 15.4282C104.467 17.2944 104.246 20.5357 102.315 22.1831C100.47 23.7568 98.5561 23.9188 96.2796 23.8302C93.4423 23.281 91.6754 22.6476 90.332 19.8804C91.5133 19.1201 92.7475 18.4447 94.0247 17.8593C94.789 19.4583 95.9703 20.0161 97.7041 19.9269C98.3816 19.892 99.7357 19.3043 99.5148 18.5133C99.088 16.984 96.2548 16.8264 94.971 16.2681C94.1893 15.9283 93.5672 15.7611 92.8798 15.2466C90.6662 13.8466 90.4925 10.7281 91.8772 8.68379C92.8343 7.27078 94.9106 6.48879 96.5683 6.42392C96.7975 6.41491 97.0547 6.36808 97.2888 6.32911Z" fill="var(--fill-0, #1B1B1B)"/>
<path id="Vector_6" d="M66.793 6.77604C67.7402 6.66625 70.3889 6.75064 71.4386 6.76727C70.8563 8.64325 69.8554 11.06 69.1415 12.9697C68.9231 13.3938 67.856 16.2752 67.6608 16.8336C66.9262 18.9378 65.8566 21.3138 65.1899 23.3881C63.5463 23.397 61.9018 23.3969 60.2571 23.3876C59.5868 21.3306 54.0714 7.552 54.1472 6.86564C54.3858 6.6622 56.7398 6.73989 57.2408 6.74212C57.693 6.72996 58.244 6.75842 58.7036 6.77182L61.393 14.524C61.7545 15.5655 62.4486 17.3326 62.6744 18.3607C63.2154 17.0945 63.6621 15.6718 64.1096 14.3625L65.5986 10.0999C65.8955 9.22992 66.4158 7.54753 66.793 6.77604Z" fill="var(--fill-0, #1B1B1B)"/>
<path id="Vector_7" d="M51.8989 6.52428L51.9191 6.53098C52.2477 6.91213 51.9886 9.73252 52.0941 10.4093C52.1141 10.5029 52.0379 11.1512 51.9262 11.1588C46.5337 11.5248 46.8902 14.1282 46.9062 19.0913L46.9058 23.3824C45.4927 23.3978 44.0794 23.3981 42.6662 23.3835L42.6639 20.8275L42.6581 11.9427C42.658 10.9735 42.5823 7.61256 42.8046 6.8716C43.2423 6.63523 46.2116 6.74584 46.906 6.75312L46.9245 9.57144C48.3403 7.15248 49.2298 6.87317 51.8989 6.52428Z" fill="var(--fill-0, #1B1B1B)"/>
</g>
<defs>
<clipPath id="clip0_0_6">
<rect width="126.431" height="24" fill="white"/>
</clipPath>
</defs>
</svg>
