<svg preserveAspectRatio="none" width="100%" height="100%" overflow="visible" style="display: block;" viewBox="0 0 126 24" fill="none" xmlns="http://www.w3.org/2000/svg">
<g id="logo" clip-path="url(#clip0_0_4)">
<path id="Vector" d="M29.1207 6.33259C29.3566 6.40771 30.0814 6.4461 30.3874 6.48887C32.3981 6.77 33.0282 7.31257 34.3998 8.70034C34.393 8.0647 34.4004 7.42905 34.4217 6.79374C35.2077 6.68884 37.9559 6.72392 38.7438 6.79614C38.8599 8.07794 38.7777 10.9697 38.7774 12.3369L38.773 23.3826C37.3169 23.3979 35.8607 23.398 34.4047 23.3831L34.4054 21.5685C33.9619 22.0061 33.7216 22.2544 33.2114 22.6029C28.2341 25.7158 22.4326 22.6889 21.2628 17.1081C20.3271 12.6438 22.5742 7.81393 27.1276 6.59469C27.7623 6.42475 28.4554 6.46496 29.1207 6.33259ZM30.7642 19.6538C33.282 19.1542 34.9125 16.6922 34.3967 14.1691C33.8809 11.646 31.4161 10.0272 28.9058 10.563C26.4206 11.0933 24.8275 13.5366 25.3381 16.0343C25.8488 18.5321 28.2719 20.1483 30.7642 19.6538Z" fill="var(--fill-0, white)"/>
<path id="Vector_2" d="M111.277 2.25217L111.404 2.25829C111.535 2.53793 111.474 6.15347 111.473 6.72218C113.561 6.79375 115.91 6.74402 118.017 6.74444C118.014 5.64971 118.02 4.55498 118.035 3.46033C119.138 3.16199 121.205 2.56375 122.228 2.16017C122.284 3.64019 122.257 5.23298 122.256 6.7216C123.504 6.74469 124.751 6.75627 125.998 6.75627L126 10.9896L122.259 11.0058C122.211 12.6284 122.158 17.4723 122.447 18.8249C122.726 19.0898 122.934 19.2208 123.249 19.431C124.093 19.47 125.139 19.4481 125.998 19.4525L125.999 23.3624C122.923 23.684 119.066 23.8263 118.219 19.9161C117.975 18.7879 118.013 17.9818 118.024 16.8356L118.029 11.0022L111.473 11.0048C111.467 12.777 111.338 17.3357 111.663 18.8255C111.964 19.1035 112.126 19.2096 112.464 19.4303C113.274 19.4745 114.375 19.4483 115.206 19.4523L115.208 23.3613C112.055 23.7574 108.135 23.7153 107.394 19.7588C107.15 18.4465 107.227 17.1759 107.23 15.8474L107.254 11.0018L104.425 10.9895C104.42 9.57748 104.423 8.16547 104.432 6.75354C105.335 6.72946 106.32 6.74683 107.23 6.74518L107.249 3.45081C108.531 3.12112 109.993 2.64152 111.277 2.25217Z" fill="var(--fill-0, white)"/>
<path id="Vector_3" d="M0.170632 0.163153C1.65996 0.146276 3.18779 0.162738 4.68009 0.163317C4.74068 3.19724 4.69765 6.36031 4.69914 9.40391C7.52001 9.45454 10.4544 9.41508 13.2843 9.41673L13.2978 0.163401C14.789 0.141559 16.3293 0.162657 17.8244 0.163898L17.8331 16.0284L17.833 20.8501C17.8329 21.4177 17.8682 22.7668 17.7979 23.281C17.6187 23.4433 17.5464 23.3875 17.2456 23.3951L13.298 23.3848L13.2994 13.8224L4.70037 13.8268C4.60697 16.8486 4.70045 20.3136 4.68595 23.3823C3.17568 23.3979 1.66524 23.3983 0.154969 23.3835C0.176073 15.7008 0.0537346 7.82585 0.170632 0.163153Z" fill="var(--fill-0, white)"/>
<path id="Vector_4" d="M80.3868 6.32911C80.86 6.37255 81.3835 6.39191 81.8468 6.45884C83.9061 6.77124 85.761 7.88384 87.0099 9.55638C88.6595 11.7975 89.0239 14.2679 88.62 16.957L76.2608 16.9678C77.3333 20.082 80.8172 20.6968 83.5071 19.1781C83.8435 18.9881 84.2301 18.6004 84.522 18.3333C85.1246 18.5992 86.0421 19.1683 86.6365 19.5143C87.0594 19.7636 87.5087 20.0557 87.9291 20.317C85.0924 24.3858 79.189 24.9542 75.227 22.2145C69.2906 18.1087 71.2172 7.47911 78.7068 6.52312C79.2657 6.45172 79.8345 6.43104 80.3868 6.32911ZM76.1644 13.4895L80.6177 13.4869C81.9103 13.4895 83.24 13.4752 84.5294 13.4971C83.8377 11.2724 82.5492 10.2307 80.1948 10.2063C77.9912 10.4542 76.8033 11.3542 76.1644 13.4895Z" fill="var(--fill-0, white)"/>
<path id="Vector_5" d="M96.957 6.32911C99.8085 6.48656 101.748 7.40978 103.229 9.92413C102.038 10.5405 100.855 11.1731 99.6807 11.8218C99.5307 11.6206 99.3765 11.4218 99.2199 11.2255C98.7549 10.6457 98.074 10.2821 97.3345 10.2192C96.6841 10.1583 95.9817 10.2159 95.4912 10.6625C95.2991 10.8371 94.8845 11.2448 94.9405 11.4894C95.2917 13.0194 99.1762 13.4068 100.445 14.0975C101.149 14.4022 101.872 14.8618 102.393 15.4282C104.111 17.2944 103.891 20.5357 101.966 22.1831C100.128 23.7568 98.2199 23.9188 95.9512 23.8302C93.1236 23.281 91.3627 22.6476 90.0239 19.8804C91.2011 19.1201 92.4311 18.4447 93.7039 17.8593C94.4657 19.4583 95.6429 20.0161 97.3708 19.9269C98.046 19.892 99.3955 19.3043 99.1754 18.5133C98.75 16.984 95.9265 16.8264 94.647 16.2681C93.868 15.9284 93.2481 15.7611 92.563 15.2466C90.357 13.8466 90.1838 10.7281 91.5638 8.68379C92.5177 7.27079 94.5869 6.48879 96.2389 6.42393C96.4673 6.41491 96.7237 6.36808 96.957 6.32911Z" fill="var(--fill-0, white)"/>
<path id="Vector_6" d="M66.5652 6.77604C67.5092 6.66625 70.1488 6.75064 71.195 6.76727C70.6146 8.64325 69.6171 11.06 68.9057 12.9697C68.688 13.3938 67.6246 16.2752 67.43 16.8336C66.698 18.9378 65.632 21.3138 64.9676 23.3881C63.3295 23.397 61.6907 23.3969 60.0516 23.3876C59.3835 21.3306 53.887 7.552 53.9626 6.86564C54.2003 6.6622 56.5463 6.73989 57.0456 6.74212C57.4963 6.72996 58.0454 6.75842 58.5034 6.77182L61.1837 14.524C61.5439 15.5655 62.2356 17.3326 62.4606 18.3607C62.9998 17.0945 63.4449 15.6718 63.8909 14.3625L65.3748 10.0999C65.6708 9.22992 66.1893 7.54753 66.5652 6.77604Z" fill="var(--fill-0, white)"/>
<path id="Vector_7" d="M51.7219 6.52428L51.742 6.53098C52.0695 6.91214 51.8113 9.73252 51.9164 10.4093C51.9364 10.5029 51.8605 11.1512 51.7491 11.1588C46.375 11.5248 46.7303 14.1282 46.7462 19.0913L46.7458 23.3824C45.3375 23.3978 43.9291 23.3981 42.5207 23.3835L42.5184 20.8275L42.5126 11.9427C42.5125 10.9735 42.4371 7.61256 42.6586 6.8716C43.0949 6.63523 46.054 6.74584 46.746 6.75312L46.7645 9.57144C48.1755 7.15248 49.0619 6.87317 51.7219 6.52428Z" fill="var(--fill-0, white)"/>
</g>
<defs>
<clipPath id="clip0_0_4">
<rect width="126" height="24" fill="white"/>
</clipPath>
</defs>
</svg>
