<svg xmlns="http://www.w3.org/2000/svg" viewBox="0 0 1002.99 278.22">
  <defs>
    <style>
      .cls-1 {
        fill: #0f4ef5;
      }
    </style>
  </defs>
  <g>
    <g>
      <path class="cls-1" d="M441.56,171.01s-.03-102.56-.03-159.98c0-.7-.05-1.41-.1-2.1l-.24-4.29h-55.11v221.59h-88.45V4.65h-55.12l-.15,3.48c-.02.39-.04.75-.06,1.1-.04.66-.08,1.26-.08,1.86v32.86c-.02,62.08-.04,124.17.02,186.24.03,26.26,23,47.69,51.2,47.79,14.81.05,29.75.07,44.57.07,17.71,0,35.24-.03,52.2-.06,13.37-.03,25.12-4.39,34.93-12.96,10.55-9.19,15.93-20.61,16.44-34.91l.13-3.76h-55.19l55.04-55.34Z"/>
      <polygon class="cls-1" points="947.52 55.18 947.57 277.85 1002.62 277.85 1002.99 0 947.52 55.18"/>
      <path class="cls-1" d="M682.94,229.73c.03-17.04,0-34.07-.02-51.11l-.02-15.45c-.01-21.78-15.59-40.26-37.46-45.93-.79-.21-17.25-1.87-18.06-2.04h-88.1v-58.84h88.1v58.84l55.64-25.86s-.05-12.24-.05-18.37,0-12.3-.05-18.43c-.02-3.14-.35-6.25-1.01-9.23-5.04-22.86-26.1-38.84-51.21-38.86-30.97,0-61.94,0-92.91,0h-53.88v273.56h31.07s24.34,0,24.34,0c30.65,0,61.31,0,91.96-.05,3.7,0,7.22-.32,10.49-.96,24.22-4.76,41.16-24.2,41.2-47.28M627.57,221.79v4.39h-88.3v-58.97h88.31c.03,16.07,0,41.43-.01,54.59"/>
      <path class="cls-1" d="M909.94,46.84c-2.78-23.66-24.85-42.25-50.24-42.31-42.4-.09-149.92,0-149.92,0l55.47,55.63h87.35c-12.69,20.41-36.72,58.38-62.03,98.38-28.51,45.06-58,91.65-70.01,111.18-.38.63-.72,1.28-1.14,2.08l-3.39,6.37h21.81c11.72-.02,23.85-.03,35.77.06h.09c3.88,0,6.41-1.41,8.42-4.69,36.11-58.78,74.53-121.18,120.88-196.38,5.84-9.46,8.17-19.65,6.93-30.3h0Z"/>
      <path class="cls-1" d="M144.09,277.99h54.94l.34-3.95c.05-.53.09-.96.09-1.39,0-36.44-.05-109.35-.05-109.4l-.81-47.65h-54.7c2.95-1.39,55.05-11.7,55.34-44.14V4.72h-55.34v110.73H55.37V4.65H0l.28,273.39h55.23v-110.55h88.58v110.49Z"/>
    </g>
  </g>
</svg>