<svg viewBox="0 0 201.665 99.822" height="99.822" width="201.665" xmlns="http://www.w3.org/2000/svg">
  <g transform="translate(-15.858 -2715.547)" id="hawksburn_capital_black">
    <path fill="#80c046" transform="translate(53.578 -0.001)" d="M81.483,2719.132a10.451,10.451,0,0,0-15.484-.3,4.084,4.084,0,0,1-5.774,0,10.448,10.448,0,0,0-15.481.3c-3.973,4.343-4.4,9.7-.29,14.538L60.03,2751.6a4.081,4.081,0,0,0,6.166,0l15.577-17.927C85.885,2728.833,85.456,2723.475,81.483,2719.132Z" id="Path_51"></path>
    <circle fill="#80c046" transform="translate(108.868 2756.303)" r="7.822" cy="7.822" cx="7.822" id="Ellipse_6"></circle>
    <g transform="translate(69.962 2729.086)" id="Group_61">
      <path fill="#80c046" transform="translate(3.602 -2719.937)" d="M67.709,2723.893l-15.562,17.942a4.084,4.084,0,0,0,.867,6.1l19.939,12.9c5.364,3.39,10.611,2.215,14.352-2.329a10.452,10.452,0,0,0-1.875-15.373,4.081,4.081,0,0,1-.814-5.716,10.449,10.449,0,0,0-2.474-15.287C77.286,2718.813,71.916,2719.143,67.709,2723.893Z" id="Path_52"></path>
      <path fill="#80c046" transform="translate(-33.398 -2719.937)" d="M55.544,2723.893l15.562,17.942a4.086,4.086,0,0,1-.867,6.1l-19.942,12.9c-5.364,3.39-10.611,2.215-14.349-2.329a10.452,10.452,0,0,1,1.875-15.373,4.081,4.081,0,0,0,.811-5.716,10.45,10.45,0,0,1,2.477-15.287C45.967,2718.813,51.334,2719.143,55.544,2723.893Z" id="Path_53"></path>
    </g>
    <g transform="translate(15.858 2782.402)" id="Group_62">
      <path transform="translate(-15.858 -2736.9)" d="M18.289,2737.375v7.982h9.541v-7.982h2.434v18.874H27.829v-8.618H18.289v8.618H15.858v-18.874Z" id="Path_54"></path>
      <path transform="translate(-0.945 -2736.9)" d="M32.926,2737.375l7.323,18.874H37.6l-1.98-5.262H27.534l-1.983,5.262H23.012l7.35-18.874Zm-1.376,2.749-3.276,8.75h6.607Z" id="Path_55"></path>
      <path transform="translate(13.953 -2736.9)" d="M32.907,2737.375l3.939,15.516,4.1-15.436h2.616l4.072,15.436,3.911-15.516h2.591L48.9,2756.249H46.334l-4.2-15.78-4.124,15.78H35.523l-5.364-18.874Z" id="Path_56"></path>
      <path transform="translate(35.351 -2736.9)" d="M42.882,2737.375v9.041l8.856-9.041h2.773l-6.74,7.058,7.428,11.816H52.4l-6.4-10.2-3.118,3.118v7.085H40.424v-18.874Z" id="Path_57"></path>
      <path transform="translate(49.48 -2737.221)" d="M51.206,2754.072a6.514,6.514,0,0,0,3.742.885,6.638,6.638,0,0,0,2.073-.276,3.624,3.624,0,0,0,1.336-.74,2.6,2.6,0,0,0,.716-1.083,4.114,4.114,0,0,0,.21-1.312,4.264,4.264,0,0,0-.133-1.07,2.183,2.183,0,0,0-.515-.937,3.371,3.371,0,0,0-1.055-.74,7.027,7.027,0,0,0-1.734-.5l-2.378-.422a14.417,14.417,0,0,1-2.486-.633,6.254,6.254,0,0,1-1.835-1.019,3.936,3.936,0,0,1-1.138-1.548,5.912,5.912,0,0,1-.382-2.246,4.612,4.612,0,0,1,.543-2.272,4.894,4.894,0,0,1,1.468-1.638,6.313,6.313,0,0,1,2.193-.979,11.233,11.233,0,0,1,2.748-.317,10.14,10.14,0,0,1,3.131.41,5.827,5.827,0,0,1,2.048,1.095,4.643,4.643,0,0,1,1.2,1.573,9.166,9.166,0,0,1,.623,1.811l-2.273.45a6.821,6.821,0,0,0-.543-1.416,3.118,3.118,0,0,0-.873-1.03,3.872,3.872,0,0,0-1.333-.619,7.566,7.566,0,0,0-1.931-.214,8.452,8.452,0,0,0-2.168.238,4.044,4.044,0,0,0-1.4.647,2.313,2.313,0,0,0-.753.978,3.225,3.225,0,0,0-.225,1.2,3.8,3.8,0,0,0,.173,1.2,2.12,2.12,0,0,0,.58.9,3.234,3.234,0,0,0,1.07.636,9.634,9.634,0,0,0,1.641.438l2.643.475a8.6,8.6,0,0,1,4.306,1.835,4.911,4.911,0,0,1,1.376,3.77,5.228,5.228,0,0,1-.435,2.125,4.88,4.88,0,0,1-1.3,1.734,6.266,6.266,0,0,1-2.156,1.162,9.83,9.83,0,0,1-3.038.423,12.914,12.914,0,0,1-3.026-.33,6.769,6.769,0,0,1-2.366-1.046,5.372,5.372,0,0,1-1.613-1.822,6.691,6.691,0,0,1-.74-2.645h2.434A4.115,4.115,0,0,0,51.206,2754.072Z" id="Path_58"></path>
      <path transform="translate(65.252 -2736.9)" d="M61.033,2737.375a11.878,11.878,0,0,1,3.3.383,5.575,5.575,0,0,1,2.051,1.03,3.433,3.433,0,0,1,1.043,1.536,5.989,5.989,0,0,1,.29,1.888,4.575,4.575,0,0,1-.592,2.325,4.443,4.443,0,0,1-2.076,1.718,6.172,6.172,0,0,1,1.573.861,4.511,4.511,0,0,1,1,1.083,3.871,3.871,0,0,1,.531,1.243,6.151,6.151,0,0,1,.145,1.335,6.321,6.321,0,0,1-.358,2.153,4.341,4.341,0,0,1-1.151,1.73,5.55,5.55,0,0,1-2.088,1.166,10.466,10.466,0,0,1-3.2.422h-6.74v-18.874Zm3.384,7.2a2.815,2.815,0,0,0,.925-2.285,2.507,2.507,0,0,0-.993-2.221,6.224,6.224,0,0,0-3.393-.688H57.146v5.975h4.2A4.753,4.753,0,0,0,64.416,2744.577ZM63.584,2754a3.583,3.583,0,0,0,1.376-.672,2.3,2.3,0,0,0,.713-1.059,4.625,4.625,0,0,0,.2-1.412,3.269,3.269,0,0,0-.978-2.555,4.849,4.849,0,0,0-3.276-.885H57.146v6.819h4.284A8.154,8.154,0,0,0,63.584,2754Z" id="Path_59"></path>
      <path transform="translate(79.971 -2736.9)" d="M64.26,2737.375v11.395a7.244,7.244,0,0,0,1.1,4.386,4.263,4.263,0,0,0,3.634,1.453,4.163,4.163,0,0,0,3.621-1.465,7.457,7.457,0,0,0,1.058-4.374v-11.395H76.1v11.395a11.743,11.743,0,0,1-.487,3.605,6.518,6.518,0,0,1-1.4,2.472,5.322,5.322,0,0,1-2.246,1.428,9.35,9.35,0,0,1-3,.45,7.051,7.051,0,0,1-5.271-1.9q-1.865-1.907-1.863-6.16v-11.286Z" id="Path_60"></path>
      <path transform="translate(95.868 -2736.9)" d="M75.64,2737.375a10.565,10.565,0,0,1,3.464.476,5.81,5.81,0,0,1,2.128,1.23,3.994,3.994,0,0,1,1.07,1.7,6.575,6.575,0,0,1,.29,1.932,5.893,5.893,0,0,1-.753,3.066,4.952,4.952,0,0,1-2.474,1.982l3.967,8.485H80.609l-3.569-7.905a5.838,5.838,0,0,1-.737.067c-.265.01-.5.013-.716.013H71.861v7.825H69.455v-18.874Zm2.326,8.711a3.16,3.16,0,0,0,1.3-.716,2.428,2.428,0,0,0,.66-1.122,5.5,5.5,0,0,0,.185-1.481,4.233,4.233,0,0,0-.21-1.4,2.367,2.367,0,0,0-.728-1.042,3.432,3.432,0,0,0-1.388-.663,9.169,9.169,0,0,0-2.218-.223h-3.7v6.9h4.016A7.323,7.323,0,0,0,77.965,2746.086Z" id="Path_61"></path>
      <path transform="translate(110.728 -2736.9)" d="M78.99,2737.375l9.6,14.987v-14.987h2.35v18.874H88.611l-9.673-14.91v14.91H76.584v-18.874Z" id="Path_62"></path>
    </g>
    <g transform="translate(72.771 2806.6)" id="Group_63">
      <path transform="translate(-34.309 -2745.066)" d="M41.129,2752.053a2.886,2.886,0,0,1-1.69,1.561,4.017,4.017,0,0,1-1.4.222,3.957,3.957,0,0,1-1.555-.293,3.109,3.109,0,0,1-1.172-.851,4.03,4.03,0,0,1-.74-1.376,6,6,0,0,1-.265-1.854,5.79,5.79,0,0,1,.281-1.869,4.041,4.041,0,0,1,.783-1.382,3.393,3.393,0,0,1,1.188-.855,3.739,3.739,0,0,1,1.481-.289,3.986,3.986,0,0,1,1.333.2,2.75,2.75,0,0,1,.953.562,2.791,2.791,0,0,1,.632.866,4.753,4.753,0,0,1,.367,1.11l-1.052.177a4.242,4.242,0,0,0-.275-.827,2.1,2.1,0,0,0-.435-.623,1.748,1.748,0,0,0-.629-.395,2.632,2.632,0,0,0-.895-.133,2.384,2.384,0,0,0-1.107.25,2.41,2.41,0,0,0-.817.7,3.259,3.259,0,0,0-.509,1.089,5.727,5.727,0,0,0,0,2.816,3.356,3.356,0,0,0,.509,1.095,2.319,2.319,0,0,0,.817.7,2.445,2.445,0,0,0,1.12.246,2.845,2.845,0,0,0,.975-.147,1.738,1.738,0,0,0,.666-.413,1.985,1.985,0,0,0,.416-.645,3.663,3.663,0,0,0,.222-.818h1.11A3.893,3.893,0,0,1,41.129,2752.053Z" id="Path_63"></path>
      <path transform="translate(-24.395 -2744.924)" d="M43.451,2745.134l3.239,8.35H45.521l-.876-2.329H41.064l-.876,2.329H39.065l3.251-8.35Zm-.608,1.215-1.453,3.871h2.924Z" id="Path_64"></path>
      <path transform="translate(-13.787 -2744.924)" d="M46.952,2745.134a4.934,4.934,0,0,1,1.524.2,2.357,2.357,0,0,1,.947.54,1.8,1.8,0,0,1,.481.789,3.315,3.315,0,0,1,.133.953,3.607,3.607,0,0,1-.139,1,2.072,2.072,0,0,1-.49.843,2.392,2.392,0,0,1-.95.57,4.511,4.511,0,0,1-1.505.213H45.218v3.239H44.154v-8.35Zm.993,4.08a1.434,1.434,0,0,0,.62-.339,1.2,1.2,0,0,0,.308-.53,2.567,2.567,0,0,0,.089-.7,2.285,2.285,0,0,0-.1-.7,1.03,1.03,0,0,0-.327-.5,1.491,1.491,0,0,0-.626-.3,4.032,4.032,0,0,0-.987-.1H45.218v3.286h1.721A3.666,3.666,0,0,0,47.945,2749.214Z" id="Path_65"></path>
      <path transform="translate(-4.173 -2744.924)" d="M49.839,2745.134v8.35H48.766v-8.35Z" id="Path_66"></path>
      <path transform="translate(2.064 -2744.924)" d="M51.758,2746.093v-.959h6.607v.959H55.6v7.391H54.519v-7.391Z" id="Path_67"></path>
      <path transform="translate(10.792 -2744.924)" d="M60.328,2745.134l3.242,8.35H62.4l-.876-2.329H57.944l-.876,2.329H55.945l3.251-8.35Zm-.608,1.215-1.45,3.871h2.924Z" id="Path_68"></path>
      <path transform="translate(21.401 -2744.924)" d="M62.111,2745.134v7.391h4.325l-.163.959H61.034v-8.35Z" id="Path_69"></path>
    </g>
  </g>
</svg>
