<svg preserveAspectRatio="none" width="100%" height="100%" overflow="visible" style="display: block;" viewBox="0 0 136 48" fill="none" xmlns="http://www.w3.org/2000/svg">
<g id="image 1 [Vectorized]" clip-path="url(#clip0_0_43)">
<path id="Vector" d="M75.6078 7.95086C77.7908 7.86305 80.2631 7.95569 82.4619 7.93905C85.0611 7.91936 87.5698 9.00013 89.3672 10.9194C91.1105 12.7769 92.0313 15.2595 91.9211 17.8051C91.807 20.7357 90.5704 22.8041 88.4788 24.7429C87.5117 25.5612 86.3184 26.1778 85.1034 26.5276C83.5756 26.9674 76.078 27.2753 74.9083 26.6015C74.687 26.4741 74.5542 26.3667 74.4863 26.115C74.0318 24.4417 74.2698 18.3455 74.2669 16.2342C74.2639 13.9873 74.1026 11.6101 74.2895 9.37607C74.3121 9.10595 74.3692 8.87777 74.5079 8.64328C74.7568 8.22275 75.1562 8.06564 75.6078 7.95086Z" fill="var(--fill-0, black)" fill-opacity="0.5"/>
<path id="Vector_2" d="M77.7869 11.4224C80.6714 11.4052 84.0625 10.9443 86.3056 12.8526C87.5275 13.8847 88.2811 15.3667 88.3952 16.9626C88.5319 18.8419 87.922 20.2141 86.7227 21.5906C84.1629 23.979 81.183 23.4099 77.783 23.3844L77.7869 11.4224Z" fill="var(--fill-0, white)"/>
<path id="Vector_3" d="M115.243 7.94791C116.515 7.9425 117.787 7.94614 119.059 7.95903C120.971 11.3173 123.569 15.2532 125.642 18.59C127.62 15.1547 130.101 11.3621 132.213 7.95913C133.47 7.93935 134.727 7.94122 135.982 7.96474L135.976 26.9301L132.512 26.9275L132.514 18.4935L132.523 13.6301C131.632 15.1644 127.446 22.21 126.468 22.8457C126.129 23.0665 125.734 23.1725 125.331 23.083C124.895 22.9861 124.536 22.7044 124.245 22.3754C123.47 21.4992 122.871 20.316 122.252 19.3198L118.697 13.621C118.793 15.193 118.748 17.0887 118.749 18.6766L118.75 26.9283L115.228 26.9285C115.298 20.641 115.224 14.2467 115.243 7.94791Z" fill="var(--fill-0, black)" fill-opacity="0.5"/>
<path id="Vector_4" d="M23.9733 0.158907C24.276 0.122189 24.4369 0.0818285 24.7331 0.177118C24.8266 0.749542 24.779 4.12414 24.7789 4.86686L24.7777 15.5722L24.7829 34.0809C24.7843 37.2545 24.8089 40.4317 24.756 43.6043C24.7208 45.7138 23.4936 47.3076 21.414 47.7518C21.1041 47.7773 20.9095 47.8178 20.6162 47.7004C20.4972 47.2643 20.5449 44.3953 20.5452 43.782L20.55 34.8241L20.5502 14.6583C20.5487 11.2591 20.5329 7.8598 20.5545 4.4607C20.5696 2.083 21.7535 0.798565 23.9733 0.158907Z" fill="var(--fill-0, black)" fill-opacity="0.5"/>
<path id="Vector_5" d="M61.5748 7.94092C62.5801 7.88294 64.0542 7.68714 64.5877 8.75836C65.5386 10.6673 66.3562 12.6649 67.2091 14.6225L72.5777 26.9179L68.675 26.9271L67.0301 23.0904L63.6006 23.0896L58.0654 23.0898L56.4027 26.9262L52.5092 26.9226C55.1362 21.1782 57.5228 15.2747 60.1066 9.50817C60.5163 8.59406 60.6141 8.28546 61.5748 7.94092Z" fill="var(--fill-0, black)" fill-opacity="0.5"/>
<path id="Vector_6" d="M62.5221 12.8073C62.69 12.9423 65.2653 19.0384 65.5859 19.7841L62.5184 19.7847L59.501 19.772L62.5221 12.8073Z" fill="var(--fill-0, white)"/>
<path id="Vector_7" d="M35.9183 6.45518C36.7574 6.38647 37.2477 6.53462 38.0416 6.74774C37.2063 8.57979 36.387 10.7523 35.6213 12.6503L31.0162 24.0111C31.8556 25.8504 32.6901 28.0717 33.4609 29.9826L38.0002 41.1985C37.2394 41.5915 36.3422 41.5746 35.5227 41.4623C33.995 41.0819 33.1208 40.2693 32.5046 38.8414C30.3964 33.9559 28.6095 28.8664 26.4743 23.9979C27.0122 22.8576 27.6375 21.1749 28.1188 19.9795L31.0758 12.6325C32.1886 9.86875 32.6299 7.09759 35.9183 6.45518Z" fill="var(--fill-0, black)" fill-opacity="0.5"/>
<path id="Vector_8" d="M8.50167 6.45508C9.80156 6.31618 11.6292 7.02888 12.2786 8.20543C13.1793 9.83725 13.8598 11.7754 14.5619 13.5178L18.8007 23.9952C16.6356 29.1579 14.6303 34.7489 12.2493 39.8287C11.9994 40.3621 11.0352 40.9575 10.4981 41.2346C9.28693 41.6747 8.47028 41.6188 7.27182 41.2174C9.65625 35.5134 11.8618 29.6776 14.2701 23.9893C11.8722 18.4611 9.56505 12.359 7.26523 6.7437C7.67016 6.61465 8.08523 6.53934 8.50167 6.45508Z" fill="var(--fill-0, black)" fill-opacity="0.5"/>
<path id="Vector_9" d="M102.865 7.64639C106.189 7.1917 109.04 8.68128 111.316 10.9683C110.411 11.7311 109.538 12.5821 108.677 13.3979L108.623 13.3341C107.597 12.1195 105.999 11.2957 104.416 11.1717C102.742 11.036 101.082 11.572 99.8043 12.6616C98.5401 13.7508 97.7678 15.3031 97.6606 16.9686C97.3556 21.1198 100.111 23.4849 104.079 23.7433C105.409 23.7046 106.158 23.715 107.414 23.3342L107.41 26.9582L106.959 27.0252C103.689 27.4973 100.512 27.2633 97.7865 25.2081C95.8032 23.6946 94.5046 21.4531 94.1779 18.9791C93.3693 13.2143 97.148 8.4338 102.865 7.64639Z" fill="var(--fill-0, black)" fill-opacity="0.5"/>
<path id="Vector_10" d="M114.115 30.1211L115.496 30.1179L115.487 34.5095C117.47 32.3816 120.498 31.6851 121.81 34.9392C122.305 36.1651 121.916 38.6509 120.293 38.7965C117.628 39.0354 114.61 38.9667 111.927 38.8156C111.802 38.8087 111.201 38.3255 111.006 38.215C110.04 38.7977 108.771 39.2212 107.681 38.6784C105.979 37.8306 106.956 35.289 106.536 34.0623C106.09 33.8935 105.022 34.1255 104.685 34.4978C103.84 35.4325 104.124 37.6751 104.131 38.9183C102.748 38.9325 101.408 39.0129 100.056 38.719C97.6832 37.9853 97.5592 36.0979 97.5838 33.9896L98.9739 33.9916C98.969 34.1285 98.9661 34.2654 98.9641 34.4024C98.9267 37.4243 100.073 37.5988 102.773 37.559C102.759 37.0741 102.752 36.589 102.751 36.1039C102.778 32.5825 105.344 32.6871 108.005 32.7311C108.014 33.4814 107.767 36.9024 108.288 37.2513C110.947 39.0321 110.288 34.1078 110.278 32.7263L111.663 32.7282C111.67 33.3736 111.687 34.2145 111.636 34.8496C111.442 37.3473 111.715 37.6198 114.122 37.5583C114.079 35.1226 114.116 32.5663 114.115 30.1211Z" fill="var(--fill-0, black)" fill-opacity="0.5"/>
<path id="Vector_11" d="M118.635 34.0143C118.783 34.0316 118.93 34.0531 119.077 34.0786C119.805 34.2098 120.092 34.5931 120.491 35.1721C120.846 37.9815 119.827 37.6103 117.52 37.5645L115.487 37.5566L115.491 36.0199C116.475 34.9999 117.217 34.32 118.635 34.0143Z" fill="var(--fill-0, white)"/>
<path id="Vector_12" d="M74.2905 30.1043C74.6063 30.0932 74.8473 30.0531 75.1306 30.1794C75.3343 30.5363 75.2025 35.6984 75.2074 36.505C75.2221 38.7893 72.3445 39.9485 70.7439 37.9143L70.7055 37.8645C70.4015 37.9513 69.8929 38.5803 69.6706 38.6372C67.9204 39.0837 65.0966 39.0543 63.364 38.7814C60.3755 38.3107 63.6022 32.126 59.9271 34.526C59.1781 35.015 59.4031 38.0273 59.4101 38.9172C58.7599 38.9268 58.1097 38.9311 57.4595 38.93C53.7146 38.901 52.849 37.5107 52.8873 33.9866C53.2654 33.9745 53.8443 33.9037 54.1492 34.0717C54.3581 34.4534 54.2813 34.5093 54.2793 35.0067C54.2563 37.6102 55.9711 37.5838 58.0475 37.564C58.0394 37.1371 58.0356 36.7101 58.0363 36.283C58.0537 32.6177 60.4255 32.6821 63.2699 32.7316C63.2849 36.2484 62.0778 37.6355 66.1024 37.5738C65.5554 37.0726 65.2675 36.7837 65.1828 36.0064C65.106 35.254 65.3308 34.5017 65.8082 33.9149C66.3995 33.1793 67.2396 32.8232 68.1644 32.7346C72.0081 32.3662 71.0804 36.7714 72.073 37.5026C72.2835 37.6579 72.5266 37.6874 72.7794 37.6449C73.0175 37.605 73.4248 37.4576 73.5674 37.2569C74.3505 36.1492 73.2831 31.0392 73.9452 30.1518L74.2905 30.1043Z" fill="var(--fill-0, black)" fill-opacity="0.5"/>
<path id="Vector_13" d="M68.1487 34.0416C69.1256 33.9369 70.0011 34.6452 70.1044 35.6227C70.2077 36.6003 69.4994 37.4762 68.5215 37.5783C67.5466 37.6801 66.673 36.9723 66.5706 35.9966C66.4673 35.021 67.1737 34.146 68.1487 34.0416Z" fill="var(--fill-0, white)"/>
<path id="Vector_14" d="M2.90544 17.2978C3.57816 17.2904 4.58724 17.4579 5.10954 17.8644C7.35092 19.6086 9.48389 22.0017 11.5101 23.9997C9.53485 25.8824 7.65295 28.0204 5.58579 29.808C4.91996 30.3839 4.13479 30.5982 3.27466 30.7087C1.85897 30.7233 1.10303 30.3043 0.0528238 29.4647L5.54142 23.9897C3.71127 22.2402 1.83773 20.3083 0.0388541 18.5107C1.15143 17.676 1.53177 17.4484 2.90544 17.2978Z" fill="var(--fill-0, black)" fill-opacity="0.5"/>
<path id="Vector_15" d="M41.9705 17.2903C43.3246 17.1966 44.2355 17.7316 45.2382 18.5237C43.5868 20.1613 41.4101 22.4755 39.7169 23.9734C41.5537 25.7304 43.4331 27.6684 45.2387 29.4732C44.2635 30.2316 43.8596 30.4426 42.6884 30.6846C42.6395 30.6874 42.5906 30.6893 42.5416 30.6904C40.2897 30.736 39.3526 29.5697 37.8944 28.1117C36.5224 26.7401 35.1665 25.3154 33.7567 23.9844C35.8623 22.044 38.0621 19.3391 40.3687 17.7411C40.7807 17.4557 41.4653 17.3567 41.9705 17.2903Z" fill="var(--fill-0, black)" fill-opacity="0.5"/>
<path id="Vector_16" d="M77.1337 30.1052L78.1883 30.1231L78.1578 34.4739C78.1381 38.3036 78.5503 37.6111 82.0399 37.56L80.1785 34.845V32.7255C83.9769 32.6975 91.0809 31.7801 85.6051 37.5677C86.3853 37.5504 87.1703 37.5866 87.9485 37.617C89.7617 37.6879 89.6574 36.6225 89.6239 35.2695L89.6259 30.1232C90.0834 30.1146 90.5625 30.1227 91.0209 30.123C90.9973 31.9006 91.3692 36.544 90.5949 37.9022C90.3372 38.3537 90.0607 38.5837 89.56 38.7146C88.2279 39.063 80.3881 39.0411 78.8219 38.8703C78.4933 38.8346 78.2099 38.772 77.9256 38.6005C77.4691 38.3254 77.0412 37.7683 76.9153 37.2492C76.7677 36.6435 76.7096 30.4548 76.8897 30.1517L77.1337 30.1052Z" fill="var(--fill-0, black)" fill-opacity="0.5"/>
<path id="Vector_17" d="M81.8559 34.0357C83.9681 33.9933 87.7046 33.4737 84.9873 36.6295C84.5869 37.0541 84.2859 37.3316 83.854 37.7153C83.2873 37.0859 82.4501 35.8231 82.033 35.079C81.8057 34.6742 81.8283 34.5 81.8559 34.0357Z" fill="var(--fill-0, white)"/>
<path id="Vector_18" d="M125.26 32.7413C128.783 32.4506 129.207 34.6563 129.145 37.5576L129.55 37.565C131.892 37.6277 131.29 35.7849 131.258 33.9808L132.642 33.9832C132.676 37.2045 133.068 38.9466 129.164 38.9269C128.958 40.0665 128.75 40.4425 127.917 41.2329C126.293 42.3135 124.621 41.8443 123.24 40.647L124.198 39.7506C125.752 40.9308 127.057 40.7729 127.865 38.9329C125.982 38.9298 123.657 39.0582 122.919 36.8203C122.652 36.0211 122.722 35.1477 123.11 34.4006C123.602 33.462 124.293 33.0476 125.26 32.7413Z" fill="var(--fill-0, black)" fill-opacity="0.5"/>
<path id="Vector_19" d="M125.664 34.0037C127.987 34.0189 127.788 35.8031 127.778 37.5566L126.281 37.5663C125.405 37.5635 124.603 37.3015 124.253 36.4078C124.086 35.9857 124.099 35.5137 124.289 35.1016C124.579 34.4763 125.052 34.227 125.664 34.0037Z" fill="var(--fill-0, white)"/>
<path id="Vector_20" d="M105.423 16.6967C107.605 16.5963 110.154 16.6644 112.362 16.6711C112.355 18.2068 112.341 19.8698 112.373 21.3979C112.429 24.0328 112.056 25.3026 109.528 26.4384C109.223 26.5233 109.278 26.5603 109.037 26.4724C108.913 25.4351 109.011 21.2876 109.014 20.0291L102.647 20.0175C102.893 18.1444 103.568 17.21 105.423 16.6967Z" fill="var(--fill-0, black)" fill-opacity="0.5"/>
<path id="Vector_21" d="M92.9895 30.1047C93.323 30.0972 93.9723 30.0271 93.9172 30.4391C93.7647 31.5918 94.1602 38.1388 93.8543 38.8671L93.5817 38.928C93.2728 38.9307 92.7986 38.9664 92.5704 38.7779C92.5005 37.9596 92.4445 30.388 92.6245 30.1473C92.8045 29.9066 92.9895 30.1047 92.9895 30.1047Z" fill="var(--fill-0, black)" fill-opacity="0.5"/>
<path id="Vector_22" d="M134.002 32.3292L135.428 32.3257C135.35 34.3522 135.408 36.8555 135.405 38.9162L134 38.9196L134.002 32.3292Z" fill="var(--fill-0, black)" fill-opacity="0.5"/>
<path id="Vector_23" d="M134.812 29.4712C135.249 29.5651 135.531 29.5659 135.746 29.9893C135.346 30.4143 134.583 29.8689 134.377 30.6797C134.88 31.4635 135.801 30.6135 135.983 31.6831C135.503 31.764 133.949 31.8908 133.6 31.5762C133.605 31.1778 133.894 31.1052 133.891 31.0133C133.863 30.0054 133.768 29.8452 134.812 29.4712Z" fill="var(--fill-0, black)" fill-opacity="0.5"/>
<path id="Vector_24" d="M110.709 39.9411C111.118 39.8111 111.559 40.0194 111.718 40.4185C111.877 40.8176 111.702 41.2722 111.316 41.4605C111.039 41.595 110.712 41.5638 110.466 41.3796C110.22 41.1954 110.098 40.8891 110.149 40.5861C110.2 40.2831 110.416 40.0342 110.709 39.9411Z" fill="var(--fill-0, black)" fill-opacity="0.5"/>
<path id="Vector_25" d="M131.569 39.9452C131.833 39.8114 132.148 39.8305 132.393 39.9951C132.638 40.1597 132.775 40.4441 132.752 40.7386C132.727 41.033 132.546 41.2916 132.277 41.4145C131.874 41.5992 131.397 41.427 131.204 41.027C131.011 40.6271 131.174 40.1463 131.569 39.9452Z" fill="var(--fill-0, black)" fill-opacity="0.5"/>
<path id="Vector_26" d="M118.195 30.0999C118.632 29.9874 119.077 30.2507 119.188 30.6876C119.299 31.1244 119.035 31.5688 118.598 31.6792C118.163 31.7892 117.72 31.5259 117.61 31.0905C117.499 30.6552 117.76 30.2121 118.195 30.0999Z" fill="var(--fill-0, black)" fill-opacity="0.5"/>
<path id="Vector_27" d="M55.7431 40.0444C56.0086 39.9139 56.3249 39.9434 56.5618 40.1208C56.7986 40.2983 56.916 40.5937 56.8655 40.8854C56.815 41.1771 56.6053 41.4159 56.3226 41.5034C55.9303 41.6247 55.5106 41.4238 55.3589 41.042C55.2071 40.66 55.3744 40.2256 55.7431 40.0444Z" fill="var(--fill-0, black)" fill-opacity="0.5"/>
<path id="Vector_28" d="M58.123 40.0443C58.3895 39.918 58.7044 39.9517 58.9382 40.1315C59.1722 40.3114 59.2856 40.6072 59.2322 40.8975C59.1788 41.1878 58.9674 41.4236 58.6848 41.5083C58.2911 41.6262 57.873 41.4208 57.7257 41.0369C57.5783 40.653 57.7515 40.2203 58.123 40.0443Z" fill="var(--fill-0, black)" fill-opacity="0.5"/>
<path id="Vector_29" d="M100.459 40.0481C100.842 39.8596 101.306 40.0111 101.502 40.3893C101.7 40.7676 101.559 41.2343 101.187 41.4408C100.937 41.5786 100.633 41.5704 100.391 41.4194C100.149 41.2684 100.008 40.9983 100.023 40.7135C100.036 40.4287 100.204 40.174 100.459 40.0481Z" fill="var(--fill-0, black)" fill-opacity="0.5"/>
<path id="Vector_30" d="M102.857 40.0394C103.119 39.9196 103.426 39.9531 103.656 40.1266C103.886 40.3001 104.002 40.5857 103.959 40.8707C103.916 41.1557 103.72 41.3941 103.449 41.4919C103.054 41.6345 102.616 41.4395 102.457 41.0498C102.298 40.6601 102.474 40.2144 102.857 40.0394Z" fill="var(--fill-0, black)" fill-opacity="0.5"/>
</g>
<defs>
<clipPath id="clip0_0_43">
<rect width="136" height="48" fill="white"/>
</clipPath>
</defs>
</svg>
