<svg preserveAspectRatio="none" width="100%" height="100%" overflow="visible" style="display: block;" viewBox="0 0 132 36" fill="none" xmlns="http://www.w3.org/2000/svg">
<g id="image 2 [Vectorized]" clip-path="url(#clip0_0_4)">
<path id="Vector" d="M64.1009 0.131099C68.4571 0.181653 72.8492 0.0916392 77.2131 0.132897C79.1027 0.15076 81.4584 0.0245805 83.3081 0.283432C84.1715 0.404173 85.5893 1.25266 86.216 1.90974C88.0701 3.85527 87.9456 5.47929 87.942 7.88196L87.9326 11.3512C87.3688 11.7522 86.5062 12.2445 85.9019 12.6135L82.0395 14.9775C83.6982 15.1517 84.9705 15.5112 86.2015 16.7392C86.9809 17.5111 87.5244 18.4885 87.7676 19.5571C88.0165 20.6138 87.9405 22.7608 87.9398 23.9313L87.9333 30.212L87.934 30.2474C87.929 31.5862 87.1018 33.1667 86.1624 34.0912C84.6571 35.5733 83.0975 35.8543 81.0777 35.8296C79.6086 35.8117 78.1011 35.8314 76.6226 35.8314L64.0926 35.8192L64.1009 0.131099ZM70.0977 29.8882C74.0346 29.9412 77.9947 29.8559 81.9201 29.9091C81.9208 28.9016 81.9382 27.8943 81.9729 26.8874C82.452 26.3712 82.9195 25.9029 83.421 25.408C84.6412 24.1888 86.7045 21.9979 87.9623 20.9401C84.1209 21.0138 80.1391 20.9656 76.2882 20.9666L72.1371 20.968C71.5683 20.9683 70.6238 21.0061 70.1013 20.9649C70.1021 23.8579 70.1694 27.0189 70.0977 29.8882ZM70.0984 14.9472C73.8595 14.9861 78.1894 15.0534 81.9252 14.9569C82.0779 12.1485 81.8376 8.95495 81.9512 6.13645C79.2113 6.11189 76.4706 6.10625 73.7307 6.11954C72.6075 6.12077 71.1999 6.16332 70.1057 6.12287L70.0984 14.9472Z" fill="var(--fill-0, black)" fill-opacity="0.5"/>
<path id="Vector_2" d="M17.9602 0.140283C19.9334 0.136419 21.9674 0.108436 23.9356 0.159027C23.9253 5.07451 23.9965 10.0937 23.9206 14.9993C22.3954 15.0424 20.3007 15.0133 18.7769 14.9563C19.7145 15.2969 20.106 15.2593 21.1173 15.8831C22.4545 16.699 23.4076 18.0164 23.7629 19.5399C23.8591 19.9725 23.9153 20.4131 23.931 20.856C23.984 22.2255 23.971 35.6132 23.839 35.8221C21.8733 35.8317 19.9076 35.83 17.942 35.817C17.967 30.974 17.8393 25.7886 17.966 20.9803C15.2768 20.919 12.5314 20.9939 9.8385 20.9689C8.63549 20.9577 7.3096 21.0149 6.11795 20.9513C6.03647 25.8274 6.11137 30.9191 6.10789 35.8168C4.14681 35.8624 2.04641 35.8262 0.0745476 35.8178C0.158714 34.7458 0.0842452 32.3628 0.0836662 31.2141C0.0702054 27.7992 0.0746921 24.3843 0.0971268 20.9694C1.79978 20.9014 3.54715 21.0071 5.2684 20.9242C-0.654582 19.4251 0.0786724 15.3252 0.0801198 10.4538L0.0927848 0.155458C1.93178 0.0805411 4.25211 0.13194 6.10131 0.149008C6.16116 5.04129 6.11354 10.0295 6.11397 14.929C10.0003 15.0016 14.0456 14.9446 17.9439 14.9441C18.0748 10.1837 17.9144 4.95605 17.9602 0.140283Z" fill="var(--fill-0, black)" fill-opacity="0.5"/>
<path id="Vector_3" d="M32.1391 0.155444C33.9131 0.0874396 36.2707 0.113804 38.051 0.159287L38.0471 29.8877C43.8637 30.0405 50.0511 29.8607 55.9156 29.9168C55.8625 31.7217 55.3366 32.8773 54.0812 34.162C52.7427 35.4106 51.3208 35.8479 49.5143 35.8354C48.2694 35.8267 47.0149 35.8306 45.7687 35.827L38.8138 35.8382C36.7799 35.8399 35.3291 35.5203 33.8299 34.0491C31.838 32.0943 32.1216 30.0384 32.1257 27.5203L32.1344 21.6136L32.1391 0.155444Z" fill="var(--fill-0, black)" fill-opacity="0.5"/>
<path id="Vector_4" d="M95.3136 0.089597L106.602 0.0801279C109.045 0.0793189 113.266 -0.259022 115.295 0.910228C116.661 1.69725 117.657 2.99364 118.065 4.51394C118.38 5.71976 118.322 6.99275 117.897 8.1649C117.671 8.77539 116.641 10.4973 116.267 11.1507L113.095 16.7035C109.479 23.0347 105.86 29.545 102.176 35.8146C100.215 35.9138 97.4152 35.8236 95.3976 35.8163L95.3911 35.7202C95.999 34.5444 96.7241 33.3634 97.3827 32.208L101.212 25.4894L103.168 22.0379C104.284 20.0595 104.602 19.6629 106.208 18.067L109.116 15.1759C112.15 12.1205 115.202 9.08439 118.275 6.06798C117.214 6.14129 115.888 6.11666 114.814 6.11739L109.432 6.11948C104.763 6.12028 99.9504 6.17885 95.2905 6.09666C95.3809 4.28339 95.2688 1.99672 95.3136 0.089597Z" fill="var(--fill-0, black)" fill-opacity="0.5"/>
<path id="Vector_5" d="M131.753 0.219727C131.868 0.414005 131.816 33.0852 131.813 35.8169C129.91 35.8671 127.759 35.8347 125.854 35.8142L125.855 17.4032C125.853 13.8699 125.734 9.55757 125.881 6.07484C127.455 4.34904 130.056 1.85543 131.753 0.219727Z" fill="var(--fill-0, black)" fill-opacity="0.5"/>
<path id="Vector_6" d="M49.9868 0.130737C51.945 0.168449 53.9334 0.117743 55.9082 0.154776L55.9147 14.2938C55.915 17.4538 55.9628 20.748 55.8966 23.8994C55.5135 24.4097 53.6237 26.2228 53.0617 26.7803C52.0901 27.7407 50.8845 28.8916 49.9781 29.8862L49.9868 0.130737Z" fill="var(--fill-0, black)" fill-opacity="0.5"/>
</g>
<defs>
<clipPath id="clip0_0_4">
<rect width="132" height="36" fill="white"/>
</clipPath>
</defs>
</svg>
