<svg preserveAspectRatio="none" width="100%" height="100%" overflow="visible" style="display: block;" viewBox="0 0 145.167 52.1255" fill="none" xmlns="http://www.w3.org/2000/svg">
<g id="image 3 [Vectorized]" clip-path="url(#clip0_0_11)">
<path id="Vector" d="M7.16547 47.9714C7.90867 46.599 9.58156 44.4441 10.5056 43.1166L12.6558 40.0887C13.1155 39.4304 13.598 38.6017 14.1385 38.0376C14.2019 39.7088 14.1675 41.5474 14.1674 43.2297L14.1598 51.8428L12.3781 51.8413C12.3724 49.0408 12.3263 46.1997 12.4818 43.4062C11.822 44.1616 11.4373 44.9155 10.8791 45.726C10.074 46.895 9.22842 48.0514 8.39024 49.1981C7.99876 49.7337 7.55581 50.4962 7.16058 50.9924C6.60833 50.424 5.67968 49.0513 5.20199 48.3598L1.82734 43.384C1.91344 46.2026 1.94087 49.0228 1.90961 51.8427C1.28128 51.843 0.625712 51.8528 -8.13802e-05 51.8404V38.1058C0.624368 38.4681 6.09863 46.6213 7.16547 47.9714Z" fill="var(--fill-0, black)" fill-opacity="0.5"/>
<path id="Vector_2" d="M31.7577 38.4372C32.3607 38.4289 32.9532 38.4167 33.5563 38.4387C33.581 40.0638 33.5893 41.6891 33.5813 43.3143C33.5825 45.7779 33.8712 48.7626 32.0634 50.7297C31.245 51.6202 30.1287 51.7916 29.039 52.1255H27.0297C25.4251 51.6926 24.2942 51.4555 23.4177 49.8971C23.0841 49.3041 22.6885 48.459 22.6022 47.7828C22.4099 46.276 22.453 44.4906 22.4703 42.9572C22.4861 41.5518 22.415 39.7929 22.4925 38.4286C23.1029 38.4294 23.7711 38.417 24.3762 38.435L24.3794 43.8572C24.3771 45.5057 24.1047 48.2095 25.3565 49.3975C27.2009 51.1477 31.0756 50.5758 31.5902 47.804C31.8134 46.6017 31.7416 45.4801 31.7481 44.2693C31.786 42.3573 31.6947 40.336 31.7577 38.4372Z" fill="var(--fill-0, black)" fill-opacity="0.5"/>
<path id="Vector_3" d="M131.274 51.8356L136.165 42.0608C136.535 41.314 137.791 38.4896 138.173 38.0588C138.374 38.1116 138.604 38.3969 138.687 38.587C140.001 41.5692 141.623 44.3841 142.99 47.3404C143.339 48.096 143.742 48.8047 144.143 49.5318C144.51 50.1979 144.758 50.9398 145.167 51.585V51.8365L143.273 51.8354C142.905 51.0897 142.55 50.3372 142.209 49.5782C140.177 49.5505 138.11 49.5777 136.071 49.5633C136.292 49.0613 136.629 48.4319 136.881 47.931C138.275 47.9453 140.014 47.9693 141.384 47.9059C141.013 47.1581 140.528 46.2243 140.166 45.4871C139.718 44.5756 138.731 42.2347 138.175 41.5553C137.019 44.1833 135.673 46.6827 134.434 49.2663C134.023 50.1254 133.621 50.9874 133.204 51.8448C132.572 51.8552 131.909 51.8409 131.274 51.8356Z" fill="var(--fill-0, black)" fill-opacity="0.5"/>
<path id="Vector_4" d="M64.6806 0H65.4299C67.4571 0.995115 66.2176 2.90059 64.8016 2.63793C64.4929 2.58292 64.2198 2.40463 64.0452 2.14405C63.4294 1.23601 63.9065 0.532715 64.6806 0Z" fill="var(--fill-0, black)" fill-opacity="0.5"/>
<path id="Vector_5" d="M70.8558 1.72474C72.5236 1.50711 74.587 1.90961 76.2145 2.36068C78.9016 3.10518 80.9983 4.54832 82.7987 6.67025C83.2283 7.17582 83.7471 8.15507 84.0767 8.74654C86.2486 8.51882 91.2443 8.15763 92.6003 9.90918C94.7863 12.7322 87.1828 16.469 85.5752 17.2358L85.2881 18.8738C88.6316 17.4838 91.9142 15.316 94.7218 13.0867C94.8203 13.0084 94.9047 12.9728 95.0294 12.9495C95.3037 13.2802 94.6431 15.3741 95.5979 15.6782C95.7574 15.6611 96.1012 15.4869 96.1217 15.3421C96.2599 14.3481 96.2968 13.3036 97.0758 12.5167C97.4252 12.1667 97.9023 11.9737 98.3963 11.9818C99.1881 11.9939 99.7516 12.7192 99.6623 13.4431C99.4227 15.3824 97.1254 16.8901 95.2683 16.8483C93.9123 16.8177 94.1427 15.5906 94.2249 14.7072C93.9159 14.8737 92.9051 15.6735 92.5032 15.9569C91.3265 16.7864 90.1577 17.4552 88.9534 18.2194C87.5847 19.0872 86.0394 19.6111 84.6913 20.4023C84.132 21.8046 83.0929 23.3884 81.9651 24.3965C85.337 25.321 94.171 27.7751 97.0978 26.4257C97.667 26.1635 97.847 25.738 98.054 25.1849C97.8909 24.1141 97.3118 23.1652 96.5768 22.3875C96.3677 22.1658 96.0806 21.9349 96.0693 21.6339L96.1763 21.5558C96.2677 21.5449 96.3571 21.5418 96.4457 21.5673C97.231 21.7929 98.1723 22.9897 98.5466 23.68C98.918 24.3651 99.1009 25.1836 98.8691 25.9465C98.6636 26.6232 98.144 27.0134 97.5436 27.3349C93.8811 29.2957 84.3716 26.754 80.4355 25.5741C79.132 26.5994 77.625 27.3351 76.0153 27.7324C76.3208 28.2103 76.9197 28.9572 77.4889 29.0887C78.0319 28.9801 78.039 28.0818 78.4125 27.8132L78.4969 27.8918C78.7329 28.8023 78.3289 30.3247 77.0984 30.0053C76.0415 29.7308 75.5312 28.8817 74.9946 28.0235C72.8646 28.4317 71.0379 28.4656 68.8883 28.2136C69.434 29.2972 70.2764 30.4424 71.6277 29.9138C72.0516 29.7479 72.1777 29.0753 72.5421 29.0254C73.4366 30.0271 70.1944 33.478 67.5546 27.9845C67.0017 27.913 65.2669 27.5683 64.9249 27.1843L64.9657 27.0854C65.4728 26.8785 66.5738 27.0639 67.163 27.1244L66.717 25.8353C65.3323 26.1781 64.3283 26.3525 62.926 26.5486C58.8376 27.0956 53.0062 27.5932 49.2076 26.4366C40.9522 23.9229 48.5828 17.8096 52.4266 15.6826C52.9831 15.3746 53.5256 14.7356 54.126 14.9513L54.1668 15.1001C53.8414 15.9501 43.8761 20.6994 47.4745 23.7126C48.2235 24.3398 49.829 24.765 50.8267 24.9488C56.0547 25.9117 61.19 25.1682 66.3716 24.4938C66.2396 23.9588 66.1644 23.5237 66.076 22.984C64.9292 23.1089 63.7999 23.3334 62.6667 23.4458C62.9092 23.6538 63.2969 23.8724 63.1675 24.1992C62.6936 24.353 62.0908 23.8492 61.755 23.5765C60.3513 23.654 55.3187 24.0139 54.368 23.2881L54.3636 23.1812C54.8131 22.785 59.7578 22.545 60.7899 22.3789C59.1612 21.136 58.3624 17.0488 58.3313 15.05C56.7642 14.1551 53.9962 12.0418 52.8935 10.6136C48.0932 4.39632 59.8669 5.84808 62.406 6.13634C62.7922 5.84405 63.8131 5.28965 64.2628 5.56468C64.2783 5.6079 64.2963 5.65802 64.3168 5.71504C64.177 5.99989 63.4609 6.69429 63.2636 6.90765C61.8783 8.40549 60.7924 10.2541 60.1412 12.1813C59.9249 12.8213 59.7804 13.9244 59.6913 14.5821C60.4933 15.0446 61.2675 15.5903 62.0732 16.0316C63.167 16.6305 64.3041 17.1975 65.4147 17.7661C65.4095 16.6932 65.3817 15.385 65.4719 14.3291C64.3046 14.193 63.1497 14.2016 61.9815 14.105C61.6388 14.0766 61.419 14.0442 61.3123 13.7039C61.6056 12.8914 64.7579 13.3577 65.5531 13.4163C65.653 12.4504 65.7205 12.0046 65.9775 11.1035C65.0936 10.9898 64.2082 10.895 63.3244 10.7835C62.9673 10.7385 62.2481 10.7177 62.1051 10.3724C62.1318 10.1216 62.2982 9.92677 62.4436 9.71756C63.4702 9.67607 65.1216 10.0558 66.2066 10.2349C66.314 9.52849 66.6171 8.72923 66.8616 8.05401C66.2509 7.93607 65.2188 7.85026 64.6722 7.59424C64.5309 7.52815 64.5314 7.39106 64.5144 7.26142C64.8353 6.4851 66.5256 7.04585 67.1831 7.19696C67.8348 5.7051 68.7982 4.37013 70.0086 3.2819C69.1326 3.49258 68.2769 3.68371 67.4351 4.01736C66.9227 4.22048 66.026 5.18538 65.5336 4.81896C65.5027 4.59048 65.6155 4.4389 65.7457 4.25769C66.8713 2.69229 69.0105 2.00633 70.8558 1.72474Z" fill="var(--fill-0, black)" fill-opacity="0.5"/>
<path id="Vector_6" d="M74.1305 3.31352C76.437 3.64307 78.864 5.08261 80.5425 6.66586C80.9948 7.09181 82.0792 8.49747 82.5045 9.0317C81.778 9.19602 79.6366 9.53416 79.5254 10.446L79.6168 10.5621C80.2115 10.7144 82.3621 10.296 83.0397 10.186C84.0881 12.3897 84.2319 14.3591 84.0547 16.748C80.7934 18.017 76.6497 19.3978 73.2537 20.1315C72.8596 18.519 72.6328 16.8155 72.4138 15.1694C73.2806 15.4826 75.5149 15.8406 76.5738 16.0889C76.717 16.618 76.9481 17.846 77.5952 17.9026C77.9284 17.5457 77.6498 16.6953 77.5279 16.2774L78.1304 16.4167C78.5614 16.5334 79.6487 16.9153 79.9946 16.672L79.9818 16.5312C79.7302 16.2336 77.8731 15.8174 77.3762 15.6872C77.3252 15.1596 77.1026 14.1418 76.9977 13.5819C78.0411 13.896 79.0746 14.2952 80.0981 14.6467C80.6652 14.8417 82.5471 15.8439 82.8986 15.7655L82.9766 15.6383C82.8228 14.8473 77.8724 13.1575 76.863 12.8385C76.8226 12.2548 76.695 11.4717 76.5873 10.8993C77.1501 11.091 79.7876 12.4202 80.091 12.0379C79.9443 11.5937 77.0771 10.3752 76.4852 10.162C76.4165 8.70888 76.3208 7.42304 76.6596 6.00478C76.7319 5.7008 76.8042 5.27349 76.6213 5.01662L76.4576 5.05322C75.9416 5.56611 75.8919 8.92858 75.86 9.81096C74.721 9.36261 73.5663 8.99205 72.4053 8.60774C72.6229 7.11554 73.0467 4.39017 74.1305 3.31352Z" fill="var(--fill-0, white)"/>
<path id="Vector_7" d="M55.9069 6.69819C57.6059 6.61623 59.8043 6.87249 61.5104 7.04732C61.1943 7.6316 60.5764 8.28271 60.2072 8.85538C59.1729 10.4598 58.7091 11.8767 58.4272 13.7222C56.9676 12.8755 52.8196 9.90235 52.7026 8.24221C52.6807 7.96038 52.7755 7.68195 52.965 7.47231C53.606 6.75303 55.0114 6.74279 55.9069 6.69819Z" fill="var(--fill-0, white)"/>
<path id="Vector_8" d="M86.9368 9.74965C88.3764 9.7093 93.6827 9.89128 91.4102 12.3766C90.493 13.3801 89.6261 13.8914 88.4983 14.5892C87.6889 15.0645 86.4888 15.7338 85.6482 16.0895C85.6751 14.259 85.4143 11.634 84.597 9.98298C85.4837 9.86937 86.0331 9.78511 86.9368 9.74965Z" fill="var(--fill-0, white)"/>
<path id="Vector_9" d="M66.5875 14.4097C68.2369 14.5859 69.882 14.8007 71.5215 15.0539C71.6285 16.2731 71.7448 17.4761 71.944 18.686C71.9929 18.9861 72.2651 20.2058 72.1389 20.4086L71.418 20.6023C69.8911 19.9434 68.0779 19.1279 66.6071 18.389C66.5426 17.0635 66.536 15.7358 66.5875 14.4097Z" fill="var(--fill-0, white)"/>
<path id="Vector_10" d="M59.7404 16.1312C60.1693 16.3096 61.7076 17.2628 62.1569 17.5421C63.3026 18.254 64.2953 18.8148 65.4999 19.4405C65.5497 19.8759 65.8252 21.4577 65.6576 21.7361L65.4084 21.7852C64.2516 21.9775 63.0673 22.1065 61.9007 22.2882C60.5279 20.002 60.0846 18.7205 59.7404 16.1312Z" fill="var(--fill-0, white)"/>
<path id="Vector_11" d="M71.4272 3.14946C72.1658 3.1285 72.7272 3.15658 73.4622 3.21232C72.3933 4.8471 72.041 6.51856 71.7249 8.40581L70.4998 8.07518C69.6125 7.82916 68.8597 7.63719 67.959 7.46088C68.1526 6.9206 68.4105 6.36409 68.7255 5.88411C69.3878 4.87463 70.0619 3.21802 71.4272 3.14946Z" fill="var(--fill-0, white)"/>
<path id="Vector_12" d="M73.2099 24.4126C73.2928 24.4692 74.276 26.7254 74.4142 27.0303C72.2856 27.3252 71.2429 27.3258 69.116 27.2852L68.3606 27.2589C68.1125 26.6305 68.0034 26.2615 67.8503 25.6209C69.6518 25.2881 71.44 24.8851 73.2099 24.4126Z" fill="var(--fill-0, white)"/>
<path id="Vector_13" d="M83.633 18.1634L83.6564 18.1811C83.7712 18.4512 83.3629 19.3545 83.2389 19.676C82.7285 19.9072 82.1636 20.0562 81.6504 20.2671C79.6735 21.0801 77.5967 21.6939 75.5262 22.2311L74.1617 21.7288C74.0001 21.6659 73.6089 21.5566 73.4288 21.501C75.0031 21.198 76.2974 20.695 77.8058 20.2189C79.7947 19.591 81.6958 18.9506 83.633 18.1634Z" fill="var(--fill-0, white)"/>
<path id="Vector_14" d="M66.9681 11.2542C68.4516 11.502 69.9821 11.7556 71.4455 12.0928C71.4505 12.5277 71.4881 13.8224 71.4285 14.1834L71.3435 14.2245C69.7616 13.9995 68.289 13.7276 66.6704 13.5292C66.7458 12.7679 66.845 12.0092 66.9681 11.2542Z" fill="var(--fill-0, white)"/>
<path id="Vector_15" d="M67.6909 8.2313C69.0474 8.52235 70.2734 8.82192 71.6179 9.13205C71.5881 9.5421 71.5484 10.888 71.3925 11.18L71.2067 11.1936C69.8585 10.8745 68.499 10.6052 67.1309 10.3865C67.2819 9.66507 67.4934 8.94283 67.6909 8.2313Z" fill="var(--fill-0, white)"/>
<path id="Vector_16" d="M72.2381 12.231C73.2616 12.4556 74.9819 13.0082 76.07 13.3084C76.1501 13.9952 76.2748 14.7352 76.3783 15.4233C75.5568 15.0396 73.3368 14.6331 72.3742 14.4353C72.2721 13.8025 72.2544 12.8742 72.2381 12.231Z" fill="var(--fill-0, white)"/>
<path id="Vector_17" d="M72.3153 9.36312C73.2063 9.56885 74.9783 10.2938 75.8955 10.645C75.9126 11.2474 75.9494 11.8618 75.9686 12.4686C74.7324 12.0639 73.4926 11.7487 72.2352 11.4171C72.2373 10.7737 72.2876 10.0142 72.3153 9.36312Z" fill="var(--fill-0, white)"/>
<path id="Vector_18" d="M70.7177 22.1441C71.1252 22.0347 72.4826 22.718 72.9086 22.9082C71.6313 23.2977 70.3412 23.6422 69.0401 23.9409L67.4863 24.2538C67.3763 23.7965 67.2838 23.267 67.1912 22.8008C68.3707 22.6043 69.5465 22.3853 70.7177 22.1441Z" fill="var(--fill-0, white)"/>
<path id="Vector_19" d="M75.14 23.9116C75.3527 23.888 78.4006 24.9644 78.8181 25.1061C78.4006 25.3801 77.8817 25.6641 77.4444 25.918C76.8837 26.2926 76.126 26.5223 75.4852 26.7512C75.1159 25.9554 74.7403 24.9277 74.4156 24.0989L75.14 23.9116Z" fill="var(--fill-0, white)"/>
<path id="Vector_20" d="M82.1211 21.4825L82.1898 21.4721L82.2536 21.5421C82.1175 21.8443 80.6559 23.6101 80.371 23.9277C79.8451 23.771 79.3219 23.6032 78.8031 23.4247C78.4161 23.2448 78.1807 23.1652 77.7725 23.0365C79.2518 22.499 80.6191 22.0638 82.1211 21.4825Z" fill="var(--fill-0, white)"/>
<path id="Vector_21" d="M66.7635 20.0839C67.0381 20.1788 68.5305 20.9882 68.7814 21.1583L68.6701 21.2218C68.0981 21.335 67.5244 21.4397 66.9492 21.5358C66.8956 21.0559 66.8257 20.564 66.7635 20.0839Z" fill="var(--fill-0, white)"/>
<path id="Vector_22" d="M79.8975 38.4308C81.571 38.3961 83.2836 38.4506 84.9486 38.4245C88.9322 38.3621 92.1261 41.3534 91.9546 45.416C91.8787 47.213 91.3733 48.6628 90.0415 49.9214C87.2211 52.5264 83.5104 51.8573 79.8933 51.8393C79.8351 50.0994 79.8833 48.088 79.8826 46.3303C79.8706 43.6971 79.8755 41.0639 79.8975 38.4308Z" fill="var(--fill-0, black)" fill-opacity="0.5"/>
<path id="Vector_23" d="M81.7697 40.2384C81.8136 40.2363 81.8576 40.2346 81.9022 40.233C84.023 40.1601 86.898 39.9461 88.5396 41.4935C89.4505 42.3529 90.0246 43.8548 90.0579 45.0952C90.0948 46.4544 89.5844 47.7714 88.641 48.7502C86.8399 50.366 84.0478 50.1061 81.7101 50.0162C81.6711 49.0285 81.6237 40.6092 81.7697 40.2384Z" fill="var(--fill-0, white)"/>
<path id="Vector_24" d="M42.7466 38.439C44.1791 38.3569 45.6647 38.46 47.1319 38.4155C49.3108 38.3495 51.2469 39.5313 51.2609 41.8909C51.2673 42.9728 50.5284 43.7065 49.7922 44.4042C51.7445 46.0184 52.8503 47.3092 51.5345 49.9028C50.3874 52.0562 47.9152 51.8627 45.8276 51.8561L42.7453 51.8349C42.7182 51.2628 42.7204 50.651 42.7285 50.0776C42.7839 46.2123 42.6389 42.2988 42.7466 38.439Z" fill="var(--fill-0, black)" fill-opacity="0.5"/>
<path id="Vector_25" d="M44.6659 45.4846C45.3855 45.4298 46.3652 45.5234 47.0267 45.4453C49.2747 45.1799 51.4191 47.6101 49.468 49.4531C48.1995 50.4494 46.2966 50.161 44.6612 50.1269C44.5871 49.4065 44.5657 46.1366 44.6659 45.4846Z" fill="var(--fill-0, white)"/>
<path id="Vector_26" d="M44.6695 40.1488C45.793 40.1174 47.8818 39.8809 48.7617 40.6713C49.6371 41.4577 49.4876 42.4889 48.7225 43.3073C47.6785 44.0846 45.9379 43.871 44.6598 43.8282C44.5808 43.1167 44.5729 40.8329 44.6695 40.1488Z" fill="var(--fill-0, white)"/>
<path id="Vector_27" d="M65.6135 37.9708C65.8217 38.0556 66.0271 38.386 66.1203 38.587C68.1818 43.0309 70.5987 47.3974 72.6944 51.8152C72.1281 51.8548 71.3108 51.8357 70.7258 51.8377C70.3436 51.098 70.0059 50.3362 69.6618 49.578C67.6242 49.5514 65.5668 49.5819 63.5224 49.5612C63.7382 49.0497 64.0757 48.4357 64.3347 47.9334C65.8246 47.9358 67.387 47.9592 68.8695 47.9095C68.3286 46.9685 67.9011 46.1021 67.4352 45.1226C67.1194 44.3872 66.0665 42.1107 65.6519 41.5361L60.6535 51.8429C60.0266 51.8553 59.3596 51.8406 58.7292 51.8363C60.2217 48.672 61.9004 45.4274 63.491 42.3007C64.1889 40.9286 64.875 39.2622 65.6135 37.9708Z" fill="var(--fill-0, black)" fill-opacity="0.5"/>
<path id="Vector_28" d="M104.11 37.9822C104.249 38.0547 104.344 38.2132 104.411 38.3522C106.581 42.8323 108.971 47.3304 111.102 51.8195C110.553 51.8505 109.83 51.8346 109.268 51.8359C108.674 50.9972 108.482 50.5109 108.074 49.5752L101.935 49.5633C102.154 49.0473 102.482 48.4396 102.739 47.9316C104.236 47.9465 105.733 47.9406 107.23 47.9143C106.936 47.0024 106.297 45.9625 105.827 45.1024C105.386 44.001 104.663 42.658 104.156 41.4994C103.783 42.3777 103.288 43.1705 102.876 44.0276L99.0577 51.8452C98.4381 51.8556 97.7839 51.84 97.1609 51.8339C97.618 50.7317 98.2142 49.7114 98.7635 48.6555C99.0109 48.1815 99.2058 47.6563 99.4539 47.19C101.052 44.1865 102.43 40.9202 104.11 37.9822Z" fill="var(--fill-0, black)" fill-opacity="0.5"/>
<path id="Vector_29" d="M117.291 38.4279L119.073 38.4293C119.158 42.1957 119.071 46.2271 119.088 50.0236C121.612 50.1167 124.443 49.9274 126.918 50.0676C126.771 50.5439 126.522 51.0307 126.307 51.4842C126.252 51.6095 126.198 51.6862 126.124 51.7996C125.658 51.962 118.365 51.8431 117.281 51.8401C117.216 49.8882 117.272 47.6643 117.27 45.6805C117.268 43.3074 117.22 40.7811 117.291 38.4279Z" fill="var(--fill-0, black)" fill-opacity="0.5"/>
<path id="Vector_30" d="M62.8854 2.87462C63.4041 2.66862 63.9922 2.91613 64.2077 3.43117C64.4233 3.94621 64.1869 4.53909 63.6762 4.76431C63.3373 4.91378 62.9442 4.86848 62.648 4.64585C62.3519 4.42322 62.1991 4.05797 62.2483 3.69069C62.2976 3.3234 62.5412 3.01134 62.8854 2.87462Z" fill="var(--fill-0, black)" fill-opacity="0.5"/>
<path id="Vector_31" d="M94.0739 18.7848C95.4837 18.7651 95.6503 20.0202 94.5637 20.8468C93.3013 20.8902 92.7973 19.4228 94.0739 18.7848Z" fill="var(--fill-0, black)" fill-opacity="0.5"/>
</g>
<defs>
<clipPath id="clip0_0_11">
<rect width="145.167" height="52.1255" fill="white"/>
</clipPath>
</defs>
</svg>
