<?xml version="1.0" encoding="utf-8"?>
<!-- Generator: Adobe Illustrator 19.2.1, SVG Export Plug-In . SVG Version: 6.00 Build 0)  -->
<svg version="1.1" id="layer" xmlns="http://www.w3.org/2000/svg" xmlns:xlink="http://www.w3.org/1999/xlink" x="0px" y="0px"
	 viewBox="0 0 652 652" style="enable-background:new 0 0 652 652;" xml:space="preserve">
<style type="text/css">
	.st0{fill:#00AFAA;}
	.st1{fill:#333E48;}
</style>
<g>
	<path class="st0" d="M159.7,321.2c-0.4,5.4,7.2,3.2,9.2,1.9c2.4-1.5,3.7-2.4,5.3-5c2.5-4.2-0.1-6.8-2.2-7c-1.2-0.1-3.8,0.3-5.6,3.7
		c-0.9,1.7-1.2,3.9-1,5.7c-3.1,1.8-3.1-1.5-3.1-2.7c0-0.7,0.1-1.8,0.2-2.6c0.3-2.4-0.4-1.8-2-0.4c-1,0.9-7.8,6.6-18.9,12.3
		c-11.1,5.7-26.9,11.5-51.6,17.2c-29.7,6.9-58.7,5.5-63.2-2.1c-4.5-7.6,18.6-20.9,20.1-21.8c1.6-0.9-0.3-1.5-1.3-1
		c0,0-27.5,14.9-22,25.6c5.5,10.6,33.7,10.4,63.5,4.2c49.4-10.3,69.7-28.6,72-30C160.4,318.5,159.9,319.8,159.7,321.2"/>
	<path class="st0" d="M134.1,301.7c-6.8,0.7-10.6,2-12.4,2.5c-2,0.6-3.2,1.5-3.3,2.2c-0.1,0.6,0.3,0.8,2,0.7
		c2.2-0.2,13-2.2,19.4-2.2c7.7,0,12.2,1,13.7,3c1.8,2.3-4.9,10.9-29.9,19.4c-26.6,9.1-47.1,12.6-74.5,14.7c-1.8,0.1-2.7,1,0.6,1.6
		c5,0.9,30.2,1.4,63.5-9.1c33.2-10.5,46.1-22.3,42.6-28.5C154.4,303.2,147.3,300.4,134.1,301.7"/>
	<path class="st0" d="M81.2,290.7c5.5-3.7,18.2-7.3,30.8-1.1c18.2,8.9,24.9,29.9,15.2,46.8c-9,15.8-23.8,17.3-29,17.7
		c-4.8,0.3-14.2-0.1-18.9-1c-2.1-0.4-2.2,1-0.9,1.4c6,1.8,22.8,6.4,38.8-2.6c17.5-9.8,21.2-25.9,17.1-42.4
		c-4.6-18.1-21.2-28-38.8-27.2c-9.9,0.4-15.2,5.7-15.9,7.8C79.1,291.3,79.9,291.6,81.2,290.7"/>
	<path class="st0" d="M72.9,296.7c1.6-1.7,2.3-2.3,3-3.1c0.5-0.5-1.2-1.6-4.1,0.1c-2.9,1.7-10.6,10.5-12.4,20.6
		c-2.4,13.6,4.7,25.4,9.3,29.2c4.3,3.5,4.5,1.4,3.7,0.7c-0.7-0.7-6.7-7.1-8.6-16.6c-1.4-7-1.3-11.5,1-18.1
		C66.8,303.8,72,297.7,72.9,296.7"/>
	<path class="st0" d="M119.3,310.3c-13.5-7.5-30.5-11.9-40.1-13.5c-2.6-0.4-3.9,1.7-1.6,2.1c14.4,2.6,24.5,5.1,41.5,12.8
		c0.2,0.1,0.8,0.1,1-0.2C120.3,311.2,120,310.7,119.3,310.3"/>
	<path class="st0" d="M127.7,320.3c-19.5-10.2-44.9-14.4-55.6-15.5c-2.4-0.3-3.5,2.3-1.4,2.5c25.8,2.9,43.2,8.1,56.4,14.3
		c0.3,0.1,0.8,0.3,1.1-0.1C128.5,321.2,128.4,320.7,127.7,320.3"/>
	<path class="st0" d="M69.2,317.1c20.8,0.7,41.9,5.3,49.8,7.6c0.5,0.1,0.8-0.1,0.9-0.4c0.1-0.3-0.2-0.7-0.8-0.9
		c-27.3-8.3-45.7-8.7-49.7-8.7C67.2,314.5,66.2,317,69.2,317.1"/>
	<path class="st0" d="M98.1,285.1l0.9-0.4c0,0,0,0,0,0v-0.5l0-0.3c-0.1,0-0.2,0-0.2,0c-4.4,0-8.9,3.4-12.6,9.5
		c-4.3,7-6.8,16.7-7.1,27.2c-0.7,23.5,6.5,43.7,15,44h0.1c2.2,0,4.7-1.3,5.2-4.6c0-0.3,0.1-1.3-0.4-1.4c-0.5-0.1-0.7,0.5-1,1.2
		c-0.7,1.6-2.2,1.9-3.7,1.8c-2.8-0.1-6.1-4.1-8.4-12.5c-2.5-9.1-4.1-19.4-3.6-29.9C83.2,297,92.2,284.8,98.1,285.1"/>
	<path class="st0" d="M116,356.4c0,0-0.1-0.9-0.6-0.9h0c-0.4,0-0.5,0.6-0.5,1c-0.2,1.4-0.8,2.3-1.8,2.6c-0.3,0.1-1-0.1-1.4-0.4
		c-4.1-2.8-10.6-18.6-12.9-37.7c-2.6-21.3,2.9-34.9,6.6-35.9l0.6-0.5v0l-0.1-0.3c-0.2,0.1-0.4,0.2-0.7,0.3l-0.4,0l-0.1-0.3
		c-6.2,1.9-11,18.9-8.2,41.2c2.4,19,8.5,32.4,13.6,35.7c0.8,0.6,1.6,0.8,2.4,0.8c0.2,0,0.5,0,0.7-0.1
		C114.9,361.2,116.3,359.2,116,356.4"/>
	<path class="st0" d="M113.6,325.5c-0.1-0.5-0.2-0.8-0.7-2.7c-2-8-4-20.7-2.2-29.9c0-0.2,0.1-0.4,0.1-0.5c0.1-0.6,0-0.9-0.4-0.9
		c-0.4-0.1-0.8,0.3-0.8,0.8c0,0.1-0.1,0.2-0.1,0.3c-2,9.9-1.1,24.1,1.8,33.8C112,328.9,114.2,327.5,113.6,325.5"/>
	<path class="st0" d="M75.7,288c-0.1-1.6-1.4-2.8-3-2.7c-1.6,0.1-2.8,1.4-2.7,3c0.1,1.6,1.4,2.8,3,2.7
		C74.6,290.9,75.8,289.5,75.7,288"/>
	<path class="st0" d="M163.1,333c0-1.6-1.3-2.8-2.8-2.8c-1.6,0-2.8,1.3-2.8,2.8c0,1.6,1.3,2.8,2.8,2.8
		C161.8,335.9,163.1,334.6,163.1,333"/>
	<path class="st0" d="M81.8,280.9c-0.1-2.1-1.9-3.7-4-3.5c-2.1,0.1-3.7,1.9-3.5,4c0.1,2.1,1.9,3.7,4,3.5
		C80.3,284.7,81.9,283,81.8,280.9"/>
	<path class="st0" d="M173.1,346.4c-0.4-2.1-2.5-5.1-5.7-7.8c-1.7-1.4-3.3-0.5-1.8,0.8c1.6,1.4,12.3,12.6-2.9,13.3
		c-4.9,0.2-14.7-0.6-33.6-5.7c-1.1-0.3-2.3-0.6-3.6-1c-1.5-0.4-3-0.9-4.6-1.4c-2.3-0.7-4.7-1.5-7.3-2.4c-2.4-0.8-4.8-1.7-7.4-2.7
		c-1.4-0.5-2.9-1.1-4.4-1.7c-0.2-0.1-0.4-0.2-0.7-0.3c-1.3-0.5-2.6-1-3.9-1.6c-0.5-0.2-1.1-0.4-1.6-0.7c-4.3-1.8-8.8-4-13.2-6.1
		c-1.3-0.6-2.6-1.3-3.9-1.9c-5.5-2.8-10.9-5.8-15.8-8.9c-1.4-0.9-2.7-1.7-4-2.6c-2.6-1.8-6.4-4.5-8.7-6.4
		c-17.2-14.2-0.3-14.3,17.7-12.1c1.2,0.1,2.4,0.3,3.6,0.5l1.6-2.7c-0.9-0.1-1.9-0.3-2.8-0.4c-13.7-1.9-23.1-1.2-27,1.3
		c-2.6,1.7-6.1,6.3,4.9,15.8c2.9,2.5,6.4,5.2,10.3,7.9c1.4,1,2.9,1.9,4.4,2.9c4.8,3.1,10.2,6.3,16,9.4c1.3,0.7,2.6,1.4,4,2.1
		c1.8,0.9,3.7,1.8,5.6,2.7c1.9,0.9,3.9,1.8,5.8,2.7c1.4,0.6,2.7,1.2,4.1,1.8c0.1,0.1,0.3,0.1,0.4,0.2c1.2,0.5,2.4,1,3.6,1.5
		c1.2,0.5,2.4,1,3.6,1.4h0c3.4,1.3,6.9,2.5,10.3,3.7c1.5,0.5,3,1,4.6,1.4c1.6,0.5,3.2,0.9,4.8,1.3c21.4,5.7,33.4,6.4,40.3,4.8
		c0,0,0,0,0.1,0C166.5,355.4,174.6,353.7,173.1,346.4"/>
	<path class="st1" d="M254.1,340.2h-4.4c-0.3,0-0.5-0.2-0.5-0.5V327c0-3.5,0.2-6.5,0.2-9.2c0-0.3,0.2-1.1,0-1.1
		c-0.2,0-0.4,0.5-0.5,0.5c-0.7,1.2-2.1,3.3-2.9,4.5L235,337.3c-0.2,0.3-0.6,0.3-0.7,0L223,321.7c-0.8-1.2-2.1-3.4-2.9-4.6
		c-0.2-0.4-0.2-0.5-0.4-0.4c-0.2,0.1-0.1,0.7-0.1,1c0.1,2.7,0.2,5.5,0.2,9.1v13c0,0.2-0.2,0.5-0.5,0.5H215c-0.3,0-0.5-0.2-0.5-0.5
		v-37.5c0-0.4,0.6-0.6,0.8-0.3c3.4,4.8,16.4,23.2,18.8,26.7c0.2,0.3,0.6,0.3,0.7,0c2.4-3.5,15.4-21.8,18.8-26.7
		c0.3-0.4,0.8-0.2,0.8,0.3v37.5C254.5,340,254.3,340.2,254.1,340.2"/>
	<path class="st1" d="M293.5,341c-10,0-15.6-5.9-15.6-16.5v-21.4c0-0.4,0.3-0.7,0.7-0.7h3.9c0.4,0,0.7,0.3,0.7,0.7v21.4
		c0,7.7,3.4,11.5,10.3,11.5c7,0,10.3-3.7,10.3-11.5v-21.4c0-0.4,0.3-0.7,0.7-0.7h3.9c0.4,0,0.7,0.3,0.7,0.7v21.4
		C309.1,335,303.4,341,293.5,341"/>
	<path class="st1" d="M355.2,320.1c-0.5-0.3-0.6-1-0.1-1.4c2-1.5,3.6-3.9,3.6-6.7c0-5.6-4.6-9.5-11.1-9.5h-12.1
		c-0.4,0-0.8,0.4-0.8,0.8v36.2c0,0.4,0.4,0.8,0.8,0.8h13c7.7,0,12.6-4.4,12.6-11.3C361.1,324.7,358.2,321.6,355.2,320.1 M340,308
		c0-0.4,0.4-0.8,0.8-0.8h6c4.1,0,6.7,2.1,6.7,5.2c0,3.1-2.9,5.4-6.7,5.4h-6c-0.4,0-0.8-0.4-0.8-0.8V308z M348.2,335.5h-7.4
		c-0.4,0-0.8-0.4-0.8-0.8v-11.8c0-0.4,0.4-0.8,0.8-0.8h7.2c4.3,0,7.7,2.9,7.7,6.7C355.7,332.8,352.7,335.5,348.2,335.5"/>
	<path class="st1" d="M453.8,302.5h-14c-0.3,0-0.6,0.3-0.6,0.6v36.5c0,0.3,0.3,0.6,0.6,0.6h14.3c10.9,0,19.2-8,19.2-18.7
		C473.3,310.7,464.9,302.5,453.8,302.5 M454.1,335.2h-9c-0.3,0-0.6-0.3-0.6-0.6v-26.5c0-0.3,0.3-0.6,0.6-0.6h8.7
		c8.2,0,14.1,5.9,14.1,14.1C467.9,330.5,461,335.2,454.1,335.2"/>
	<path class="st1" d="M569,340.2h-24.1c-0.3,0-0.5-0.2-0.5-0.5V303c0-0.3,0.2-0.5,0.5-0.5h4.2c0.3,0,0.5,0.2,0.5,0.5v31.7
		c0,0.3,0.2,0.5,0.5,0.5h20.8c0.4,0,0.6,0.4,0.5,0.7l-1.9,4C569.4,340.1,569.2,340.2,569,340.2"/>
	<path class="st1" d="M418.5,340.2h-4.6c-0.2,0-0.3-0.1-0.4-0.2l-2.9-5.8c-0.1-0.1-0.2-0.2-0.4-0.2h-16.5c-0.3,0-0.5-0.3-0.4-0.6
		l2-3.9c0.1-0.1,0.2-0.2,0.4-0.2l11.7,0c0.3,0,0.5-0.3,0.4-0.6l-8.4-17.1c0,0,0-0.1-0.1-0.2c0,0.1-0.1,0.2-0.1,0.2L385.2,340
		c-0.1,0.1-0.2,0.2-0.4,0.2h-4.4c-0.3,0-0.5-0.3-0.4-0.6l19-38.1c0.2-0.3,0.6-0.3,0.7,0l19.1,38C419,339.8,418.8,340.2,418.5,340.2"
		/>
	<path class="st1" d="M526.6,340.2H522c-0.2,0-0.3-0.1-0.4-0.2l-2.9-5.8c-0.1-0.1-0.2-0.2-0.4-0.2h-16.5c-0.3,0-0.5-0.3-0.4-0.6
		l2-3.9c0.1-0.1,0.2-0.2,0.4-0.2l11.7,0c0.3,0,0.5-0.3,0.4-0.6l-8.4-17.1c0,0,0-0.1-0.1-0.2c0,0.1-0.1,0.2-0.1,0.2L493.3,340
		c-0.1,0.1-0.2,0.2-0.4,0.2h-4.4c-0.3,0-0.5-0.3-0.4-0.6l19-38.1c0.2-0.3,0.6-0.3,0.8,0l19.1,38
		C527.1,339.8,526.9,340.2,526.6,340.2"/>
	<path class="st1" d="M622.5,340.2h-4.6c-0.2,0-0.3-0.1-0.4-0.2l-2.9-5.8c-0.1-0.1-0.2-0.2-0.4-0.2h-16.5c-0.3,0-0.5-0.3-0.4-0.6
		l2-3.9c0.1-0.1,0.2-0.2,0.4-0.2l11.7,0c0.3,0,0.5-0.3,0.4-0.6l-8.4-17.1c0,0,0-0.1-0.1-0.2c0,0.1-0.1,0.2-0.1,0.2L589.2,340
		c-0.1,0.1-0.2,0.2-0.4,0.2h-4.4c-0.3,0-0.5-0.3-0.4-0.6l19-38.1c0.2-0.3,0.6-0.3,0.8,0l19.1,38C623,339.8,622.8,340.2,622.5,340.2"
		/>
</g>
</svg>
